<svg width="680" height="247" viewBox="0 0 680 247" fill="none" xmlns="http://www.w3.org/2000/svg">
<g filter="url(#filter0_d_3_291)">
<mask id="path-1-outside-1_3_291" maskUnits="userSpaceOnUse" x="0.112781" y="76.3636" width="167.907" height="151.069" fill="black">
<rect fill="white" x="0.112781" y="76.3636" width="167.907" height="151.069"/>
<path d="M81.2748 216.216L12 149.395L33.0695 131.723L42.9659 141.268L53.5007 132.432L63.3971 141.978L73.9318 133.142L64.0354 123.596L74.5702 114.759L64.6738 105.213L85.7433 87.5407L155.018 154.362L133.949 172.035L94.363 133.851L83.8282 142.687L103.621 161.779L93.0863 170.616L73.2935 151.524L62.7587 160.36L102.344 198.544L81.2748 216.216Z"/>
</mask>
<path d="M81.2748 216.216L12 149.395L33.0695 131.723L42.9659 141.268L53.5007 132.432L63.3971 141.978L73.9318 133.142L64.0354 123.596L74.5702 114.759L64.6738 105.213L85.7433 87.5407L155.018 154.362L133.949 172.035L94.363 133.851L83.8282 142.687L103.621 161.779L93.0863 170.616L73.2935 151.524L62.7587 160.36L102.344 198.544L81.2748 216.216Z" fill="black"/>
<path d="M81.2748 216.216L75.1455 221.358L80.9034 226.912L87.0327 221.77L81.2748 216.216ZM12 149.395L6.24209 143.841L0.112781 148.983L5.87069 154.536L12 149.395ZM33.0695 131.723L39.1988 126.581L33.4409 121.027L27.3116 126.169L33.0695 131.723ZM42.9659 141.268L36.8366 146.41L42.5945 151.964L48.7238 146.822L42.9659 141.268ZM53.5007 132.432L59.63 127.291L53.8721 121.737L47.7428 126.878L53.5007 132.432ZM63.3971 141.978L57.2678 147.119L63.0257 152.673L69.155 147.532L63.3971 141.978ZM73.9318 133.142L79.6897 138.696L85.819 133.554L80.0611 128L73.9318 133.142ZM64.0354 123.596L58.2775 118.042L52.1482 123.183L57.9061 128.737L64.0354 123.596ZM74.5702 114.759L80.3281 120.313L86.4574 115.172L80.6995 109.618L74.5702 114.759ZM64.6738 105.213L58.9159 99.6595L52.7865 104.801L58.5444 110.355L64.6738 105.213ZM85.7433 87.5407L91.8726 82.3995L86.1147 76.8456L79.9854 81.9867L85.7433 87.5407ZM155.018 154.362L160.776 159.916L166.905 154.775L161.147 149.221L155.018 154.362ZM133.949 172.035L127.819 177.176L133.577 182.73L139.707 177.589L133.949 172.035ZM94.363 133.851L100.492 128.71L94.7344 123.156L88.6051 128.297L94.363 133.851ZM83.8282 142.687L78.0703 137.133L71.941 142.275L77.6989 147.829L83.8282 142.687ZM103.621 161.779L109.379 167.333L115.508 162.192L109.75 156.638L103.621 161.779ZM93.0863 170.616L86.957 175.757L92.7149 181.311L98.8442 176.17L93.0863 170.616ZM73.2935 151.524L79.4228 146.383L73.6649 140.829L67.5356 145.97L73.2935 151.524ZM62.7587 160.36L57.0008 154.806L50.8715 159.947L56.6294 165.501L62.7587 160.36ZM102.344 198.544L108.102 204.098L114.232 198.956L108.474 193.403L102.344 198.544ZM81.2748 216.216L87.4042 211.075L18.1293 144.254L12 149.395L5.87069 154.536L75.1455 221.358L81.2748 216.216ZM12 149.395L17.7579 154.949L38.8274 137.277L33.0695 131.723L27.3116 126.169L6.24209 143.841L12 149.395ZM33.0695 131.723L26.9402 136.864L36.8366 146.41L42.9659 141.268L49.0952 136.127L39.1988 126.581L33.0695 131.723ZM42.9659 141.268L48.7238 146.822L59.2586 137.986L53.5007 132.432L47.7428 126.878L37.208 135.714L42.9659 141.268ZM53.5007 132.432L47.3713 137.573L57.2678 147.119L63.3971 141.978L69.5264 136.837L59.63 127.291L53.5007 132.432ZM63.3971 141.978L69.155 147.532L79.6897 138.696L73.9318 133.142L68.1739 127.588L57.6392 136.424L63.3971 141.978ZM73.9318 133.142L80.0611 128L70.1647 118.455L64.0354 123.596L57.9061 128.737L67.8025 138.283L73.9318 133.142ZM64.0354 123.596L69.7933 129.15L80.3281 120.313L74.5702 114.759L68.8123 109.205L58.2775 118.042L64.0354 123.596ZM74.5702 114.759L80.6995 109.618L70.8031 100.072L64.6738 105.213L58.5444 110.355L68.4408 119.9L74.5702 114.759ZM64.6738 105.213L70.4317 110.767L91.5012 93.0947L85.7433 87.5407L79.9854 81.9867L58.9159 99.6595L64.6738 105.213ZM85.7433 87.5407L79.614 92.6819L148.889 159.503L155.018 154.362L161.147 149.221L91.8726 82.3995L85.7433 87.5407ZM155.018 154.362L149.26 148.808L128.191 166.481L133.949 172.035L139.707 177.589L160.776 159.916L155.018 154.362ZM133.949 172.035L140.078 166.893L100.492 128.71L94.363 133.851L88.2337 138.992L127.819 177.176L133.949 172.035ZM94.363 133.851L88.6051 128.297L78.0703 137.133L83.8282 142.687L89.5861 148.241L100.121 139.405L94.363 133.851ZM83.8282 142.687L77.6989 147.829L97.4917 166.92L103.621 161.779L109.75 156.638L89.9575 137.546L83.8282 142.687ZM103.621 161.779L97.8631 156.225L87.3284 165.062L93.0863 170.616L98.8442 176.17L109.379 167.333L103.621 161.779ZM93.0863 170.616L99.2156 165.474L79.4228 146.383L73.2935 151.524L67.1642 156.665L86.957 175.757L93.0863 170.616ZM73.2935 151.524L67.5356 145.97L57.0008 154.806L62.7587 160.36L68.5166 165.914L79.0514 157.078L73.2935 151.524ZM62.7587 160.36L56.6294 165.501L96.215 203.685L102.344 198.544L108.474 193.403L68.888 155.219L62.7587 160.36ZM102.344 198.544L96.5864 192.99L75.5169 210.662L81.2748 216.216L87.0327 221.77L108.102 204.098L102.344 198.544Z" fill="white" mask="url(#path-1-outside-1_3_291)"/>
<mask id="path-3-outside-2_3_291" maskUnits="userSpaceOnUse" x="120.795" y="13.339" width="151.842" height="141.248" fill="black">
<rect fill="white" x="120.795" y="13.339" width="151.842" height="141.248"/>
<path d="M170.156 143.9L142.577 80.9245L155.537 76.3324L150.022 63.7372L162.982 59.1451L157.466 46.5499L196.348 32.7736L201.864 45.3687L214.824 40.7766L220.34 53.3718L233.301 48.7797L260.879 111.756L234.958 120.94L223.927 95.7495L185.045 109.526L196.077 134.716L170.156 143.9ZM179.53 96.9307L218.411 83.1543L207.379 57.9639L194.419 62.556L188.903 49.9609L175.943 54.553L181.458 67.1482L168.498 71.7403L179.53 96.9307Z"/>
</mask>
<path d="M170.156 143.9L142.577 80.9245L155.537 76.3324L150.022 63.7372L162.982 59.1451L157.466 46.5499L196.348 32.7736L201.864 45.3687L214.824 40.7766L220.34 53.3718L233.301 48.7797L260.879 111.756L234.958 120.94L223.927 95.7495L185.045 109.526L196.077 134.716L170.156 143.9ZM179.53 96.9307L218.411 83.1543L207.379 57.9639L194.419 62.556L188.903 49.9609L175.943 54.553L181.458 67.1482L168.498 71.7403L179.53 96.9307Z" fill="black"/>
<path d="M170.156 143.9L162.615 146.572L165.824 153.9L173.365 151.229L170.156 143.9ZM142.577 80.9245L139.368 73.5964L131.827 76.2682L135.036 83.5963L142.577 80.9245ZM155.537 76.3324L158.747 83.6605L166.287 80.9887L163.078 73.6606L155.537 76.3324ZM150.022 63.7372L146.812 56.4091L139.272 59.0809L142.481 66.409L150.022 63.7372ZM162.982 59.1451L166.191 66.4732L173.732 63.8014L170.523 56.4733L162.982 59.1451ZM157.466 46.5499L154.257 39.2218L146.717 41.8936L149.926 49.2217L157.466 46.5499ZM196.348 32.7736L203.889 30.1018L200.679 22.7737L193.139 25.4455L196.348 32.7736ZM201.864 45.3687L194.323 48.0405L197.532 55.3686L205.073 52.6968L201.864 45.3687ZM214.824 40.7766L222.365 38.1048L219.156 30.7767L211.615 33.4485L214.824 40.7766ZM220.34 53.3718L212.799 56.0436L216.009 63.3717L223.549 60.6999L220.34 53.3718ZM233.301 48.7797L240.841 46.1079L237.632 38.7798L230.091 41.4516L233.301 48.7797ZM260.879 111.756L264.089 119.084L271.629 116.412L268.42 109.084L260.879 111.756ZM234.958 120.94L227.418 123.612L230.627 130.94L238.168 128.268L234.958 120.94ZM223.927 95.7495L231.468 93.0777L228.258 85.7496L220.718 88.4214L223.927 95.7495ZM185.045 109.526L181.836 102.198L174.295 104.87L177.505 112.198L185.045 109.526ZM196.077 134.716L199.286 142.044L206.827 139.373L203.618 132.044L196.077 134.716ZM179.53 96.9307L171.989 99.6024L175.198 106.931L182.739 104.259L179.53 96.9307ZM218.411 83.1543L221.62 90.4824L229.161 87.8106L225.952 80.4825L218.411 83.1543ZM207.379 57.9639L214.92 55.2921L211.711 47.964L204.17 50.6358L207.379 57.9639ZM194.419 62.556L186.878 65.2278L190.088 72.5559L197.628 69.8841L194.419 62.556ZM188.903 49.9609L196.444 47.2891L193.235 39.961L185.694 42.6328L188.903 49.9609ZM175.943 54.553L172.733 47.2249L165.193 49.8967L168.402 57.2248L175.943 54.553ZM181.458 67.1482L184.668 74.4763L192.208 71.8045L188.999 64.4764L181.458 67.1482ZM168.498 71.7403L165.289 64.4122L157.748 67.084L160.957 74.4121L168.498 71.7403ZM170.156 143.9L177.697 141.229L150.118 78.2528L142.577 80.9245L135.036 83.5963L162.615 146.572L170.156 143.9ZM142.577 80.9245L145.786 88.2526L158.747 83.6605L155.537 76.3324L152.328 69.0043L139.368 73.5964L142.577 80.9245ZM155.537 76.3324L163.078 73.6606L157.562 61.0655L150.022 63.7372L142.481 66.409L147.997 79.0042L155.537 76.3324ZM150.022 63.7372L153.231 71.0653L166.191 66.4732L162.982 59.1451L159.773 51.817L146.812 56.4091L150.022 63.7372ZM162.982 59.1451L170.523 56.4733L165.007 43.8782L157.466 46.5499L149.926 49.2217L155.442 61.8169L162.982 59.1451ZM157.466 46.5499L160.676 53.878L199.557 40.1017L196.348 32.7736L193.139 25.4455L154.257 39.2218L157.466 46.5499ZM196.348 32.7736L188.807 35.4454L194.323 48.0405L201.864 45.3687L209.404 42.697L203.889 30.1018L196.348 32.7736ZM201.864 45.3687L205.073 52.6968L218.033 48.1047L214.824 40.7766L211.615 33.4485L198.655 38.0406L201.864 45.3687ZM214.824 40.7766L207.284 43.4484L212.799 56.0436L220.34 53.3718L227.881 50.7L222.365 38.1048L214.824 40.7766ZM220.34 53.3718L223.549 60.6999L236.51 56.1078L233.301 48.7797L230.091 41.4516L217.131 46.0437L220.34 53.3718ZM233.301 48.7797L225.76 51.4515L253.339 114.427L260.879 111.756L268.42 109.084L240.841 46.1079L233.301 48.7797ZM260.879 111.756L257.67 104.427L231.749 113.612L234.958 120.94L238.168 128.268L264.089 119.084L260.879 111.756ZM234.958 120.94L242.499 118.268L231.468 93.0777L223.927 95.7495L216.386 98.4212L227.418 123.612L234.958 120.94ZM223.927 95.7495L220.718 88.4214L181.836 102.198L185.045 109.526L188.255 116.854L227.136 103.078L223.927 95.7495ZM185.045 109.526L177.505 112.198L188.536 137.388L196.077 134.716L203.618 132.044L192.586 106.854L185.045 109.526ZM196.077 134.716L192.868 127.388L166.947 136.572L170.156 143.9L173.365 151.229L199.286 142.044L196.077 134.716ZM179.53 96.9307L182.739 104.259L221.62 90.4824L218.411 83.1543L215.202 75.8262L176.32 89.6026L179.53 96.9307ZM218.411 83.1543L225.952 80.4825L214.92 55.2921L207.379 57.9639L199.839 60.6357L210.87 85.8261L218.411 83.1543ZM207.379 57.9639L204.17 50.6358L191.21 55.2279L194.419 62.556L197.628 69.8841L210.589 65.292L207.379 57.9639ZM194.419 62.556L201.96 59.8843L196.444 47.2891L188.903 49.9609L181.363 52.6326L186.878 65.2278L194.419 62.556ZM188.903 49.9609L185.694 42.6328L172.733 47.2249L175.943 54.553L179.152 61.8811L192.112 57.289L188.903 49.9609ZM175.943 54.553L168.402 57.2248L173.918 69.82L181.458 67.1482L188.999 64.4764L183.483 51.8812L175.943 54.553ZM181.458 67.1482L178.249 59.8201L165.289 64.4122L168.498 71.7403L171.707 79.0684L184.668 74.4763L181.458 67.1482ZM168.498 71.7403L160.957 74.4121L171.989 99.6024L179.53 96.9307L187.07 94.2589L176.039 69.0685L168.498 71.7403Z" fill="white" mask="url(#path-3-outside-2_3_291)"/>
<mask id="path-5-outside-3_3_291" maskUnits="userSpaceOnUse" x="272.935" y="0" width="113" height="113" fill="black">
<rect fill="white" x="272.935" width="113" height="113"/>
<path d="M280.935 104.25V8H308.435V21.75H322.185V35.5H335.935V49.25H349.685V8H377.185V104.25H349.685V76.75H335.935V63H322.185V49.25H308.435V104.25H280.935Z"/>
</mask>
<path d="M280.935 104.25V8H308.435V21.75H322.185V35.5H335.935V49.25H349.685V8H377.185V104.25H349.685V76.75H335.935V63H322.185V49.25H308.435V104.25H280.935Z" fill="black"/>
<path d="M280.935 104.25H272.935V112.25H280.935V104.25ZM280.935 8V0H272.935V8H280.935ZM308.435 8H316.435V0H308.435V8ZM308.435 21.75H300.435V29.75H308.435V21.75ZM322.185 21.75H330.185V13.75H322.185V21.75ZM322.185 35.5H314.185V43.5H322.185V35.5ZM335.935 35.5H343.935V27.5H335.935V35.5ZM335.935 49.25H327.935V57.25H335.935V49.25ZM349.685 49.25V57.25H357.685V49.25H349.685ZM349.685 8V0H341.685V8H349.685ZM377.185 8H385.185V0H377.185V8ZM377.185 104.25V112.25H385.185V104.25H377.185ZM349.685 104.25H341.685V112.25H349.685V104.25ZM349.685 76.75H357.685V68.75H349.685V76.75ZM335.935 76.75H327.935V84.75H335.935V76.75ZM335.935 63H343.935V55H335.935V63ZM322.185 63H314.185V71H322.185V63ZM322.185 49.25H330.185V41.25H322.185V49.25ZM308.435 49.25V41.25H300.435V49.25H308.435ZM308.435 104.25V112.25H316.435V104.25H308.435ZM280.935 104.25H288.935V8H280.935H272.935V104.25H280.935ZM280.935 8V16H308.435V8V0H280.935V8ZM308.435 8H300.435V21.75H308.435H316.435V8H308.435ZM308.435 21.75V29.75H322.185V21.75V13.75H308.435V21.75ZM322.185 21.75H314.185V35.5H322.185H330.185V21.75H322.185ZM322.185 35.5V43.5H335.935V35.5V27.5H322.185V35.5ZM335.935 35.5H327.935V49.25H335.935H343.935V35.5H335.935ZM335.935 49.25V57.25H349.685V49.25V41.25H335.935V49.25ZM349.685 49.25H357.685V8H349.685H341.685V49.25H349.685ZM349.685 8V16H377.185V8V0H349.685V8ZM377.185 8H369.185V104.25H377.185H385.185V8H377.185ZM377.185 104.25V96.25H349.685V104.25V112.25H377.185V104.25ZM349.685 104.25H357.685V76.75H349.685H341.685V104.25H349.685ZM349.685 76.75V68.75H335.935V76.75V84.75H349.685V76.75ZM335.935 76.75H343.935V63H335.935H327.935V76.75H335.935ZM335.935 63V55H322.185V63V71H335.935V63ZM322.185 63H330.185V49.25H322.185H314.185V63H322.185ZM322.185 49.25V41.25H308.435V49.25V57.25H322.185V49.25ZM308.435 49.25H300.435V104.25H308.435H316.435V49.25H308.435ZM308.435 104.25V96.25H280.935V104.25V112.25H308.435V104.25Z" fill="white" mask="url(#path-5-outside-3_3_291)"/>
<mask id="path-7-outside-4_3_291" maskUnits="userSpaceOnUse" x="401.972" y="7.17721" width="139.588" height="136.907" fill="black">
<rect fill="white" x="401.972" y="7.17721" width="139.588" height="136.907"/>
<path d="M439.651 114.778L456.198 76.9925L443.238 72.4004L448.753 59.8052L435.793 55.2131L452.34 17.4276L478.261 26.6118L461.714 64.3974L487.635 73.5816L504.182 35.7961L530.103 44.9803L513.556 82.7659L500.596 78.1737L495.08 90.7689L482.119 86.1768L465.572 123.962L439.651 114.778Z"/>
</mask>
<path d="M439.651 114.778L456.198 76.9925L443.238 72.4004L448.753 59.8052L435.793 55.2131L452.34 17.4276L478.261 26.6118L461.714 64.3974L487.635 73.5816L504.182 35.7961L530.103 44.9803L513.556 82.7659L500.596 78.1737L495.08 90.7689L482.119 86.1768L465.572 123.962L439.651 114.778Z" fill="black"/>
<path d="M439.651 114.778L432.11 112.106L428.901 119.434L436.442 122.106L439.651 114.778ZM456.198 76.9925L463.739 79.6643L466.948 72.3362L459.407 69.6644L456.198 76.9925ZM443.238 72.4004L435.697 69.7286L432.488 77.0567L440.028 79.7285L443.238 72.4004ZM448.753 59.8052L456.294 62.477L459.503 55.1489L451.963 52.4771L448.753 59.8052ZM435.793 55.2131L428.252 52.5413L425.043 59.8694L432.584 62.5412L435.793 55.2131ZM452.34 17.4276L455.549 10.0995L448.009 7.42769L444.8 14.7558L452.34 17.4276ZM478.261 26.6118L485.802 29.2836L489.011 21.9555L481.471 19.2837L478.261 26.6118ZM461.714 64.3974L454.173 61.7256L450.964 69.0537L458.505 71.7255L461.714 64.3974ZM487.635 73.5816L484.426 80.9097L491.966 83.5815L495.176 76.2534L487.635 73.5816ZM504.182 35.7961L507.392 28.468L499.851 25.7962L496.642 33.1243L504.182 35.7961ZM530.103 44.9803L537.644 47.6521L540.853 40.324L533.313 37.6522L530.103 44.9803ZM513.556 82.7659L510.347 90.094L517.887 92.7657L521.097 85.4376L513.556 82.7659ZM500.596 78.1737L503.805 70.8456L496.264 68.1738L493.055 75.502L500.596 78.1737ZM495.08 90.7689L491.871 98.097L499.411 100.769L502.62 93.4407L495.08 90.7689ZM482.119 86.1768L485.328 78.8487L477.788 76.1769L474.579 83.505L482.119 86.1768ZM465.572 123.962L462.363 131.29L469.903 133.962L473.112 126.634L465.572 123.962ZM439.651 114.778L447.191 117.45L463.739 79.6643L456.198 76.9925L448.658 74.3208L432.11 112.106L439.651 114.778ZM456.198 76.9925L459.407 69.6644L446.447 65.0723L443.238 72.4004L440.028 79.7285L452.989 84.3206L456.198 76.9925ZM443.238 72.4004L450.778 75.0722L456.294 62.477L448.753 59.8052L441.213 57.1335L435.697 69.7286L443.238 72.4004ZM448.753 59.8052L451.963 52.4771L439.002 47.885L435.793 55.2131L432.584 62.5412L445.544 67.1333L448.753 59.8052ZM435.793 55.2131L443.334 57.8849L459.881 20.0994L452.34 17.4276L444.8 14.7558L428.252 52.5413L435.793 55.2131ZM452.34 17.4276L449.131 24.7557L475.052 33.9399L478.261 26.6118L481.471 19.2837L455.549 10.0995L452.34 17.4276ZM478.261 26.6118L470.721 23.94L454.173 61.7256L461.714 64.3974L469.255 67.0691L485.802 29.2836L478.261 26.6118ZM461.714 64.3974L458.505 71.7255L484.426 80.9097L487.635 73.5816L490.844 66.2535L464.923 57.0693L461.714 64.3974ZM487.635 73.5816L495.176 76.2534L511.723 38.4679L504.182 35.7961L496.642 33.1243L480.094 70.9098L487.635 73.5816ZM504.182 35.7961L500.973 43.1242L526.894 52.3084L530.103 44.9803L533.313 37.6522L507.392 28.468L504.182 35.7961ZM530.103 44.9803L522.563 42.3085L506.015 80.0941L513.556 82.7659L521.097 85.4376L537.644 47.6521L530.103 44.9803ZM513.556 82.7659L516.765 75.4378L503.805 70.8456L500.596 78.1737L497.386 85.5018L510.347 90.094L513.556 82.7659ZM500.596 78.1737L493.055 75.502L487.539 88.0971L495.08 90.7689L502.62 93.4407L508.136 80.8455L500.596 78.1737ZM495.08 90.7689L498.289 83.4408L485.328 78.8487L482.119 86.1768L478.91 93.5049L491.871 98.097L495.08 90.7689ZM482.119 86.1768L474.579 83.505L458.031 121.291L465.572 123.962L473.112 126.634L489.66 88.8486L482.119 86.1768ZM465.572 123.962L468.781 116.634L442.86 107.45L439.651 114.778L436.442 122.106L462.363 131.29L465.572 123.962Z" fill="white" mask="url(#path-7-outside-4_3_291)"/>
<mask id="path-9-outside-5_3_291" maskUnits="userSpaceOnUse" x="503.127" y="58.8724" width="167.907" height="151.069" fill="black">
<rect fill="white" x="503.127" y="58.8724" width="167.907" height="151.069"/>
<path d="M515.554 136.389L565.036 88.6593L575.571 97.4957L585.468 87.9498L596.002 96.7862L605.899 87.2403L637.503 113.749L627.607 123.295L638.141 132.132L628.245 141.678L638.78 150.514L589.298 198.243L568.228 180.571L588.021 161.479L556.417 134.97L536.624 154.061L515.554 136.389ZM566.313 125.424L597.917 151.933L617.71 132.841L607.175 124.005L617.072 114.459L606.537 105.623L596.641 115.168L586.106 106.332L566.313 125.424Z"/>
</mask>
<path d="M515.554 136.389L565.036 88.6593L575.571 97.4957L585.468 87.9498L596.002 96.7862L605.899 87.2403L637.503 113.749L627.607 123.295L638.141 132.132L628.245 141.678L638.78 150.514L589.298 198.243L568.228 180.571L588.021 161.479L556.417 134.97L536.624 154.061L515.554 136.389ZM566.313 125.424L597.917 151.933L617.71 132.841L607.175 124.005L617.072 114.459L606.537 105.623L596.641 115.168L586.106 106.332L566.313 125.424Z" fill="black"/>
<path d="M515.554 136.389L509.425 131.247L503.667 136.801L509.796 141.943L515.554 136.389ZM565.036 88.6593L570.794 83.1053L564.665 77.9642L558.907 83.5181L565.036 88.6593ZM575.571 97.4957L569.813 103.05L575.943 108.191L581.7 102.637L575.571 97.4957ZM585.468 87.9498L591.225 82.3958L585.096 77.2547L579.338 82.8086L585.468 87.9498ZM596.002 96.7862L590.244 102.34L596.374 107.481L602.132 101.927L596.002 96.7862ZM605.899 87.2403L611.657 81.6864L605.527 76.5452L599.769 82.0992L605.899 87.2403ZM637.503 113.749L643.632 118.891L649.39 113.337L643.261 108.195L637.503 113.749ZM627.607 123.295L621.477 118.154L615.719 123.708L621.849 128.849L627.607 123.295ZM638.141 132.132L644.271 137.273L650.028 131.719L643.899 126.578L638.141 132.132ZM628.245 141.678L622.116 136.536L616.358 142.09L622.487 147.232L628.245 141.678ZM638.78 150.514L644.909 155.655L650.667 150.101L644.538 144.96L638.78 150.514ZM589.298 198.243L583.54 203.797L589.669 208.938L595.427 203.384L589.298 198.243ZM568.228 180.571L562.099 175.429L556.341 180.983L562.47 186.124L568.228 180.571ZM588.021 161.479L594.15 166.62L599.908 161.066L593.779 155.925L588.021 161.479ZM556.417 134.97L562.175 129.416L556.045 124.275L550.287 129.828L556.417 134.97ZM536.624 154.061L530.866 159.615L536.995 164.757L542.753 159.203L536.624 154.061ZM566.313 125.424L560.184 120.283L554.426 125.837L560.555 130.978L566.313 125.424ZM597.917 151.933L592.159 157.487L598.289 162.628L604.047 157.074L597.917 151.933ZM617.71 132.841L623.839 137.982L629.597 132.428L623.468 127.287L617.71 132.841ZM607.175 124.005L601.046 118.864L595.288 124.418L601.417 129.559L607.175 124.005ZM617.072 114.459L623.201 119.6L628.959 114.046L622.83 108.905L617.072 114.459ZM606.537 105.623L612.295 100.069L606.166 94.9274L600.408 100.481L606.537 105.623ZM596.641 115.168L590.883 120.722L597.012 125.864L602.77 120.31L596.641 115.168ZM586.106 106.332L591.864 100.778L585.734 95.6369L579.977 101.191L586.106 106.332ZM515.554 136.389L521.684 141.53L571.166 93.8005L565.036 88.6593L558.907 83.5181L509.425 131.247L515.554 136.389ZM565.036 88.6593L559.278 94.2133L569.813 103.05L575.571 97.4957L581.329 91.9417L570.794 83.1053L565.036 88.6593ZM575.571 97.4957L581.7 102.637L591.597 93.091L585.468 87.9498L579.338 82.8086L569.442 92.3545L575.571 97.4957ZM585.468 87.9498L579.71 93.5038L590.244 102.34L596.002 96.7862L601.76 91.2322L591.225 82.3958L585.468 87.9498ZM596.002 96.7862L602.132 101.927L612.028 92.3815L605.899 87.2403L599.769 82.0992L589.873 91.645L596.002 96.7862ZM605.899 87.2403L600.141 92.7943L631.745 119.303L637.503 113.749L643.261 108.195L611.657 81.6864L605.899 87.2403ZM637.503 113.749L631.374 108.608L621.477 118.154L627.607 123.295L633.736 128.436L643.632 118.891L637.503 113.749ZM627.607 123.295L621.849 128.849L632.383 137.686L638.141 132.132L643.899 126.578L633.364 117.741L627.607 123.295ZM638.141 132.132L632.012 126.991L622.116 136.536L628.245 141.678L634.374 146.819L644.271 137.273L638.141 132.132ZM628.245 141.678L622.487 147.232L633.022 156.068L638.78 150.514L644.538 144.96L634.003 136.124L628.245 141.678ZM638.78 150.514L632.65 145.373L583.168 193.102L589.298 198.243L595.427 203.384L644.909 155.655L638.78 150.514ZM589.298 198.243L595.056 192.689L573.986 175.017L568.228 180.571L562.47 186.124L583.54 203.797L589.298 198.243ZM568.228 180.571L574.357 185.712L594.15 166.62L588.021 161.479L581.892 156.338L562.099 175.429L568.228 180.571ZM588.021 161.479L593.779 155.925L562.175 129.416L556.417 134.97L550.659 140.524L582.263 167.033L588.021 161.479ZM556.417 134.97L550.287 129.828L530.495 148.92L536.624 154.061L542.753 159.203L562.546 140.111L556.417 134.97ZM536.624 154.061L542.382 148.507L521.312 130.835L515.554 136.389L509.796 141.943L530.866 159.615L536.624 154.061ZM566.313 125.424L560.555 130.978L592.159 157.487L597.917 151.933L603.675 146.379L572.071 119.87L566.313 125.424ZM597.917 151.933L604.047 157.074L623.839 137.982L617.71 132.841L611.581 127.7L591.788 146.792L597.917 151.933ZM617.71 132.841L623.468 127.287L612.933 118.451L607.175 124.005L601.417 129.559L611.952 138.395L617.71 132.841ZM607.175 124.005L613.305 129.146L623.201 119.6L617.072 114.459L610.942 109.318L601.046 118.864L607.175 124.005ZM617.072 114.459L622.83 108.905L612.295 100.069L606.537 105.623L600.779 111.177L611.314 120.013L617.072 114.459ZM606.537 105.623L600.408 100.481L590.511 110.027L596.641 115.168L602.77 120.31L612.666 110.764L606.537 105.623ZM596.641 115.168L602.399 109.614L591.864 100.778L586.106 106.332L580.348 111.886L590.883 120.722L596.641 115.168ZM586.106 106.332L579.977 101.191L560.184 120.283L566.313 125.424L572.442 130.565L592.235 111.473L586.106 106.332Z" fill="white" mask="url(#path-9-outside-5_3_291)"/>
</g>
<defs>
<filter id="filter0_d_3_291" x="0.112778" y="0" width="660.554" height="246.912" filterUnits="userSpaceOnUse" color-interpolation-filters="sRGB">
<feFlood flood-opacity="0" result="BackgroundImageFix"/>
<feColorMatrix in="SourceAlpha" type="matrix" values="0 0 0 0 0 0 0 0 0 0 0 0 0 0 0 0 0 0 127 0" result="hardAlpha"/>
<feOffset dx="10" dy="20"/>
<feComposite in2="hardAlpha" operator="out"/>
<feColorMatrix type="matrix" values="0 0 0 0 0 0 0 0 0 0 0 0 0 0 0 0 0 0 1 0"/>
<feBlend mode="normal" in2="BackgroundImageFix" result="effect1_dropShadow_3_291"/>
<feBlend mode="normal" in="SourceGraphic" in2="effect1_dropShadow_3_291" result="shape"/>
</filter>
</defs>
</svg>
