<svg width="711" height="257" viewBox="0 0 711 257" fill="none" xmlns="http://www.w3.org/2000/svg">
<mask id="path-1-outside-1_3_288" maskUnits="userSpaceOnUse" x="0.833183" y="88.9652" width="161.217" height="152.425" fill="black">
<rect fill="white" x="0.833183" y="88.9652" width="161.217" height="152.425"/>
<path d="M78.5928 231.244L11 162.722L31.6289 144.537L41.285 154.325L51.5994 145.233L61.2555 155.022L71.5699 145.929L61.9138 136.14L72.2282 127.048L62.5721 117.259L83.201 99.0736L150.794 167.596L130.165 185.781L91.5405 146.625L81.226 155.718L100.538 175.296L90.2238 184.388L70.9116 164.811L60.5972 173.903L99.2216 213.059L78.5928 231.244Z"/>
</mask>
<path d="M78.5928 231.244L11 162.722L31.6289 144.537L41.285 154.325L51.5994 145.233L61.2555 155.022L71.5699 145.929L61.9138 136.14L72.2282 127.048L62.5721 117.259L83.201 99.0736L150.794 167.596L130.165 185.781L91.5405 146.625L81.226 155.718L100.538 175.296L90.2238 184.388L70.9116 164.811L60.5972 173.903L99.2216 213.059L78.5928 231.244Z" fill="black"/>
<path d="M78.5928 231.244L73.3418 235.873L78.2576 240.856L83.5086 236.227L78.5928 231.244ZM11 162.722L6.08416 157.738L0.833183 162.367L5.74902 167.351L11 162.722ZM31.6289 144.537L36.8798 139.908L31.964 134.924L26.713 139.553L31.6289 144.537ZM41.285 154.325L36.034 158.954L40.9498 163.938L46.2008 159.309L41.285 154.325ZM51.5994 145.233L56.8504 140.604L51.9345 135.62L46.6835 140.249L51.5994 145.233ZM61.2555 155.022L56.0045 159.651L60.9203 164.634L66.1713 160.005L61.2555 155.022ZM71.5699 145.929L76.4858 150.913L81.7367 146.284L76.8209 141.3L71.5699 145.929ZM61.9138 136.14L56.998 131.157L51.747 135.786L56.6628 140.769L61.9138 136.14ZM72.2282 127.048L77.1441 132.031L82.3951 127.402L77.4792 122.419L72.2282 127.048ZM62.5721 117.259L57.6563 112.275L52.4053 116.904L57.3211 121.888L62.5721 117.259ZM83.201 99.0736L88.452 94.4446L83.5361 89.4612L78.2851 94.0901L83.201 99.0736ZM150.794 167.596L155.71 172.579L160.961 167.95L156.045 162.967L150.794 167.596ZM130.165 185.781L124.914 190.41L129.83 195.393L135.081 190.764L130.165 185.781ZM91.5405 146.625L96.7914 141.996L91.8756 137.013L86.6246 141.642L91.5405 146.625ZM81.226 155.718L76.3102 150.735L71.0592 155.363L75.975 160.347L81.226 155.718ZM100.538 175.296L105.454 180.279L110.705 175.65L105.789 170.667L100.538 175.296ZM90.2238 184.388L84.9728 189.017L89.8887 194.001L95.1397 189.372L90.2238 184.388ZM70.9116 164.811L76.1626 160.182L71.2467 155.198L65.9958 159.827L70.9116 164.811ZM60.5972 173.903L55.6813 168.92L50.4304 173.549L55.3462 178.532L60.5972 173.903ZM99.2216 213.059L104.137 218.042L109.388 213.413L104.473 208.43L99.2216 213.059ZM78.5928 231.244L83.8437 226.615L16.251 158.093L11 162.722L5.74902 167.351L73.3418 235.873L78.5928 231.244ZM11 162.722L15.9158 167.705L36.5447 149.52L31.6289 144.537L26.713 139.553L6.08416 157.738L11 162.722ZM31.6289 144.537L26.3779 149.165L36.034 158.954L41.285 154.325L46.5359 149.696L36.8798 139.908L31.6289 144.537ZM41.285 154.325L46.2008 159.309L56.5152 150.216L51.5994 145.233L46.6835 140.249L36.3691 149.342L41.285 154.325ZM51.5994 145.233L46.3484 149.862L56.0045 159.651L61.2555 155.022L66.5065 150.393L56.8504 140.604L51.5994 145.233ZM61.2555 155.022L66.1713 160.005L76.4858 150.913L71.5699 145.929L66.6541 140.946L56.3397 150.038L61.2555 155.022ZM71.5699 145.929L76.8209 141.3L67.1648 131.511L61.9138 136.14L56.6628 140.769L66.3189 150.558L71.5699 145.929ZM61.9138 136.14L66.8296 141.124L77.1441 132.031L72.2282 127.048L67.3124 122.064L56.998 131.157L61.9138 136.14ZM72.2282 127.048L77.4792 122.419L67.8231 112.63L62.5721 117.259L57.3211 121.888L66.9773 131.677L72.2282 127.048ZM62.5721 117.259L67.488 122.242L88.1168 104.057L83.201 99.0736L78.2851 94.0901L57.6563 112.275L62.5721 117.259ZM83.201 99.0736L77.95 103.703L145.543 172.225L150.794 167.596L156.045 162.967L88.452 94.4446L83.201 99.0736ZM150.794 167.596L145.878 162.612L125.249 180.797L130.165 185.781L135.081 190.764L155.71 172.579L150.794 167.596ZM130.165 185.781L135.416 181.152L96.7914 141.996L91.5405 146.625L86.2895 151.254L124.914 190.41L130.165 185.781ZM91.5405 146.625L86.6246 141.642L76.3102 150.735L81.226 155.718L86.1419 160.701L96.4563 151.609L91.5405 146.625ZM81.226 155.718L75.975 160.347L95.2873 179.925L100.538 175.296L105.789 170.667L86.477 151.089L81.226 155.718ZM100.538 175.296L95.6224 170.312L85.308 179.405L90.2238 184.388L95.1397 189.372L105.454 180.279L100.538 175.296ZM90.2238 184.388L95.4748 179.759L76.1626 160.182L70.9116 164.811L65.6606 169.439L84.9728 189.017L90.2238 184.388ZM70.9116 164.811L65.9958 159.827L55.6813 168.92L60.5972 173.903L65.513 178.887L75.8274 169.794L70.9116 164.811ZM60.5972 173.903L55.3462 178.532L93.9706 217.688L99.2216 213.059L104.473 208.43L65.8482 169.274L60.5972 173.903ZM99.2216 213.059L94.3058 208.075L73.6769 226.26L78.5928 231.244L83.5086 236.227L104.137 218.042L99.2216 213.059Z" fill="white" mask="url(#path-1-outside-1_3_288)"/>
<mask id="path-3-outside-2_3_288" maskUnits="userSpaceOnUse" x="127.02" y="16.8165" width="146.716" height="141.196" fill="black">
<rect fill="white" x="127.02" y="16.8165" width="146.716" height="141.196"/>
<path d="M173.293 148.416L146.849 84.9552L159.735 80.1568L154.446 67.4646L167.332 62.6663L162.043 49.9741L200.7 35.5792L205.989 48.2714L218.874 43.4731L224.163 56.1653L237.049 51.367L263.492 114.828L237.721 124.425L227.144 99.0402L188.487 113.435L199.064 138.82L173.293 148.416ZM183.198 100.743L221.855 86.348L211.277 60.9636L198.392 65.7619L193.103 53.0697L180.218 57.868L185.506 70.5602L172.621 75.3585L183.198 100.743Z"/>
</mask>
<path d="M173.293 148.416L146.849 84.9552L159.735 80.1568L154.446 67.4646L167.332 62.6663L162.043 49.9741L200.7 35.5792L205.989 48.2714L218.874 43.4731L224.163 56.1653L237.049 51.367L263.492 114.828L237.721 124.425L227.144 99.0402L188.487 113.435L199.064 138.82L173.293 148.416ZM183.198 100.743L221.855 86.348L211.277 60.9636L198.392 65.7619L193.103 53.0697L180.218 57.868L185.506 70.5602L172.621 75.3585L183.198 100.743Z" fill="black"/>
<path d="M173.293 148.416L166.733 150.859L169.425 157.32L175.985 154.878L173.293 148.416ZM146.849 84.9552L144.157 78.4937L137.597 80.9364L140.29 87.3979L146.849 84.9552ZM159.735 80.1568L162.427 86.6183L168.987 84.1756L166.295 77.7141L159.735 80.1568ZM154.446 67.4646L151.754 61.0031L145.194 63.4459L147.886 69.9074L154.446 67.4646ZM167.332 62.6663L170.024 69.1278L176.584 66.685L173.892 60.2235L167.332 62.6663ZM162.043 49.9741L159.351 43.5126L152.791 45.9554L155.483 52.4169L162.043 49.9741ZM200.7 35.5792L207.26 33.1364L204.568 26.6749L198.008 29.1177L200.7 35.5792ZM205.989 48.2714L199.429 50.7142L202.121 57.1756L208.681 54.7329L205.989 48.2714ZM218.874 43.4731L225.434 41.0303L222.742 34.5688L216.182 37.0116L218.874 43.4731ZM224.163 56.1653L217.603 58.608L220.296 65.0695L226.855 62.6268L224.163 56.1653ZM237.049 51.367L243.609 48.9242L240.916 42.4627L234.356 44.9055L237.049 51.367ZM263.492 114.828L266.185 121.29L272.744 118.847L270.052 112.385L263.492 114.828ZM237.721 124.425L231.161 126.867L233.853 133.329L240.413 130.886L237.721 124.425ZM227.144 99.0402L233.703 96.5974L231.011 90.136L224.451 92.5787L227.144 99.0402ZM188.487 113.435L185.794 106.974L179.234 109.416L181.927 115.878L188.487 113.435ZM199.064 138.82L201.757 145.281L208.316 142.838L205.624 136.377L199.064 138.82ZM183.198 100.743L176.638 103.186L179.331 109.647L185.89 107.204L183.198 100.743ZM221.855 86.348L224.547 92.8095L231.107 90.3667L228.415 83.9052L221.855 86.348ZM211.277 60.9636L217.837 58.5208L215.145 52.0593L208.585 54.5021L211.277 60.9636ZM198.392 65.7619L191.832 68.2047L194.524 74.6662L201.084 72.2234L198.392 65.7619ZM193.103 53.0697L199.663 50.6269L196.971 44.1654L190.411 46.6082L193.103 53.0697ZM180.218 57.868L177.525 51.4065L170.965 53.8493L173.658 60.3108L180.218 57.868ZM185.506 70.5602L188.199 77.0217L194.759 74.5789L192.066 68.1174L185.506 70.5602ZM172.621 75.3585L169.928 68.897L163.368 71.3398L166.061 77.8013L172.621 75.3585ZM173.293 148.416L179.853 145.973L153.409 82.5124L146.849 84.9552L140.29 87.3979L166.733 150.859L173.293 148.416ZM146.849 84.9552L149.542 91.4166L162.427 86.6183L159.735 80.1568L157.043 73.6954L144.157 78.4937L146.849 84.9552ZM159.735 80.1568L166.295 77.7141L161.006 65.0219L154.446 67.4646L147.886 69.9074L153.175 82.5996L159.735 80.1568ZM154.446 67.4646L157.139 73.9261L170.024 69.1278L167.332 62.6663L164.64 56.2048L151.754 61.0031L154.446 67.4646ZM167.332 62.6663L173.892 60.2235L168.603 47.5313L162.043 49.9741L155.483 52.4169L160.772 65.1091L167.332 62.6663ZM162.043 49.9741L164.736 56.4356L203.392 42.0407L200.7 35.5792L198.008 29.1177L159.351 43.5126L162.043 49.9741ZM200.7 35.5792L194.14 38.0219L199.429 50.7142L205.989 48.2714L212.549 45.8286L207.26 33.1364L200.7 35.5792ZM205.989 48.2714L208.681 54.7329L221.567 49.9345L218.874 43.4731L216.182 37.0116L203.296 41.8099L205.989 48.2714ZM218.874 43.4731L212.314 45.9158L217.603 58.608L224.163 56.1653L230.723 53.7225L225.434 41.0303L218.874 43.4731ZM224.163 56.1653L226.855 62.6268L239.741 57.8284L237.049 51.367L234.356 44.9055L221.471 49.7038L224.163 56.1653ZM237.049 51.367L230.489 53.8097L256.932 117.271L263.492 114.828L270.052 112.385L243.609 48.9242L237.049 51.367ZM263.492 114.828L260.8 108.367L235.028 117.963L237.721 124.425L240.413 130.886L266.185 121.29L263.492 114.828ZM237.721 124.425L244.281 121.982L233.703 96.5974L227.144 99.0402L220.584 101.483L231.161 126.867L237.721 124.425ZM227.144 99.0402L224.451 92.5787L185.794 106.974L188.487 113.435L191.179 119.897L229.836 105.502L227.144 99.0402ZM188.487 113.435L181.927 115.878L192.504 141.262L199.064 138.82L205.624 136.377L195.047 110.992L188.487 113.435ZM199.064 138.82L196.372 132.358L170.6 141.955L173.293 148.416L175.985 154.878L201.757 145.281L199.064 138.82ZM183.198 100.743L185.89 107.204L224.547 92.8095L221.855 86.348L219.162 79.8865L180.506 94.2815L183.198 100.743ZM221.855 86.348L228.415 83.9052L217.837 58.5208L211.277 60.9636L204.718 63.4064L215.295 88.7908L221.855 86.348ZM211.277 60.9636L208.585 54.5021L195.699 59.3004L198.392 65.7619L201.084 72.2234L213.97 67.4251L211.277 60.9636ZM198.392 65.7619L204.952 63.3191L199.663 50.6269L193.103 53.0697L186.543 55.5125L191.832 68.2047L198.392 65.7619ZM193.103 53.0697L190.411 46.6082L177.525 51.4065L180.218 57.868L182.91 64.3295L195.796 59.5312L193.103 53.0697ZM180.218 57.868L173.658 60.3108L178.946 73.003L185.506 70.5602L192.066 68.1174L186.777 55.4252L180.218 57.868ZM185.506 70.5602L182.814 64.0987L169.928 68.897L172.621 75.3585L175.313 81.82L188.199 77.0217L185.506 70.5602ZM172.621 75.3585L166.061 77.8013L176.638 103.186L183.198 100.743L189.758 98.3002L179.181 72.9157L172.621 75.3585Z" fill="white" mask="url(#path-3-outside-2_3_288)"/>
<mask id="path-5-outside-3_3_288" maskUnits="userSpaceOnUse" x="285.818" y="0" width="111" height="111" fill="black">
<rect fill="white" x="285.818" width="111" height="111"/>
<path d="M292.818 103.25V7H320.318V20.75H334.068V34.5H347.818V48.25H361.568V7H389.068V103.25H361.568V75.75H347.818V62H334.068V48.25H320.318V103.25H292.818Z"/>
</mask>
<path d="M292.818 103.25V7H320.318V20.75H334.068V34.5H347.818V48.25H361.568V7H389.068V103.25H361.568V75.75H347.818V62H334.068V48.25H320.318V103.25H292.818Z" fill="black"/>
<path d="M292.818 103.25H285.818V110.25H292.818V103.25ZM292.818 7V0H285.818V7H292.818ZM320.318 7H327.318V0H320.318V7ZM320.318 20.75H313.318V27.75H320.318V20.75ZM334.068 20.75H341.068V13.75H334.068V20.75ZM334.068 34.5H327.068V41.5H334.068V34.5ZM347.818 34.5H354.818V27.5H347.818V34.5ZM347.818 48.25H340.818V55.25H347.818V48.25ZM361.568 48.25V55.25H368.568V48.25H361.568ZM361.568 7V0H354.568V7H361.568ZM389.068 7H396.068V0H389.068V7ZM389.068 103.25V110.25H396.068V103.25H389.068ZM361.568 103.25H354.568V110.25H361.568V103.25ZM361.568 75.75H368.568V68.75H361.568V75.75ZM347.818 75.75H340.818V82.75H347.818V75.75ZM347.818 62H354.818V55H347.818V62ZM334.068 62H327.068V69H334.068V62ZM334.068 48.25H341.068V41.25H334.068V48.25ZM320.318 48.25V41.25H313.318V48.25H320.318ZM320.318 103.25V110.25H327.318V103.25H320.318ZM292.818 103.25H299.818V7H292.818H285.818V103.25H292.818ZM292.818 7V14H320.318V7V0H292.818V7ZM320.318 7H313.318V20.75H320.318H327.318V7H320.318ZM320.318 20.75V27.75H334.068V20.75V13.75H320.318V20.75ZM334.068 20.75H327.068V34.5H334.068H341.068V20.75H334.068ZM334.068 34.5V41.5H347.818V34.5V27.5H334.068V34.5ZM347.818 34.5H340.818V48.25H347.818H354.818V34.5H347.818ZM347.818 48.25V55.25H361.568V48.25V41.25H347.818V48.25ZM361.568 48.25H368.568V7H361.568H354.568V48.25H361.568ZM361.568 7V14H389.068V7V0H361.568V7ZM389.068 7H382.068V103.25H389.068H396.068V7H389.068ZM389.068 103.25V96.25H361.568V103.25V110.25H389.068V103.25ZM361.568 103.25H368.568V75.75H361.568H354.568V103.25H361.568ZM361.568 75.75V68.75H347.818V75.75V82.75H361.568V75.75ZM347.818 75.75H354.818V62H347.818H340.818V75.75H347.818ZM347.818 62V55H334.068V62V69H347.818V62ZM334.068 62H341.068V48.25H334.068H327.068V62H334.068ZM334.068 48.25V41.25H320.318V48.25V55.25H334.068V48.25ZM320.318 48.25H313.318V103.25H320.318H327.318V48.25H320.318ZM320.318 103.25V96.25H292.818V103.25V110.25H320.318V103.25Z" fill="white" mask="url(#path-5-outside-3_3_288)"/>
<mask id="path-7-outside-4_3_288" maskUnits="userSpaceOnUse" x="424.474" y="7.95767" width="134.533" height="136.66" fill="black">
<rect fill="white" x="424.474" y="7.95767" width="134.533" height="136.66"/>
<path d="M460.489 115.566L476.355 77.4891L463.47 72.6908L468.758 59.9986L455.873 55.2003L471.739 17.1237L497.51 26.7203L481.644 64.7969L507.415 74.3936L523.281 36.3169L549.052 45.9136L533.186 83.9902L520.301 79.1919L515.012 91.8841L502.126 87.0858L486.26 125.162L460.489 115.566Z"/>
</mask>
<path d="M460.489 115.566L476.355 77.4891L463.47 72.6908L468.758 59.9986L455.873 55.2003L471.739 17.1237L497.51 26.7203L481.644 64.7969L507.415 74.3936L523.281 36.3169L549.052 45.9136L533.186 83.9902L520.301 79.1919L515.012 91.8841L502.126 87.0858L486.26 125.162L460.489 115.566Z" fill="black"/>
<path d="M460.489 115.566L453.929 113.123L451.237 119.584L457.797 122.027L460.489 115.566ZM476.355 77.4891L482.915 79.9319L485.607 73.4704L479.048 71.0276L476.355 77.4891ZM463.47 72.6908L456.91 70.248L454.217 76.7095L460.777 79.1523L463.47 72.6908ZM468.758 59.9986L475.318 62.4414L478.011 55.9799L471.451 53.5371L468.758 59.9986ZM455.873 55.2003L449.313 52.7575L446.62 59.219L453.18 61.6618L455.873 55.2003ZM471.739 17.1237L474.431 10.6622L467.871 8.21939L465.179 14.6809L471.739 17.1237ZM497.51 26.7203L504.07 29.1631L506.762 22.7016L500.202 20.2588L497.51 26.7203ZM481.644 64.7969L475.084 62.3541L472.391 68.8156L478.951 71.2584L481.644 64.7969ZM507.415 74.3936L504.723 80.855L511.283 83.2978L513.975 76.8363L507.415 74.3936ZM523.281 36.3169L525.974 29.8554L519.414 27.4127L516.721 33.8741L523.281 36.3169ZM549.052 45.9136L555.612 48.3563L558.305 41.8948L551.745 39.4521L549.052 45.9136ZM533.186 83.9902L530.494 90.4517L537.054 92.8945L539.746 86.433L533.186 83.9902ZM520.301 79.1919L522.993 72.7304L516.433 70.2876L513.741 76.7491L520.301 79.1919ZM515.012 91.8841L512.32 98.3456L518.879 100.788L521.572 94.3269L515.012 91.8841ZM502.126 87.0858L504.819 80.6243L498.259 78.1815L495.566 84.643L502.126 87.0858ZM486.26 125.162L483.568 131.624L490.128 134.067L492.82 127.605L486.26 125.162ZM460.489 115.566L467.049 118.009L482.915 79.9319L476.355 77.4891L469.795 75.0464L453.929 113.123L460.489 115.566ZM476.355 77.4891L479.048 71.0276L466.162 66.2293L463.47 72.6908L460.777 79.1523L473.663 83.9506L476.355 77.4891ZM463.47 72.6908L470.029 75.1336L475.318 62.4414L468.758 59.9986L462.198 57.5558L456.91 70.248L463.47 72.6908ZM468.758 59.9986L471.451 53.5371L458.565 48.7388L455.873 55.2003L453.18 61.6618L466.066 66.4601L468.758 59.9986ZM455.873 55.2003L462.433 57.6431L478.299 19.5664L471.739 17.1237L465.179 14.6809L449.313 52.7575L455.873 55.2003ZM471.739 17.1237L469.046 23.5852L494.817 33.1818L497.51 26.7203L500.202 20.2588L474.431 10.6622L471.739 17.1237ZM497.51 26.7203L490.95 24.2775L475.084 62.3541L481.644 64.7969L488.204 67.2397L504.07 29.1631L497.51 26.7203ZM481.644 64.7969L478.951 71.2584L504.723 80.855L507.415 74.3936L510.107 67.9321L484.336 58.3354L481.644 64.7969ZM507.415 74.3936L513.975 76.8363L529.841 38.7597L523.281 36.3169L516.721 33.8741L500.855 71.9508L507.415 74.3936ZM523.281 36.3169L520.589 42.7784L546.36 52.375L549.052 45.9136L551.745 39.4521L525.974 29.8554L523.281 36.3169ZM549.052 45.9136L542.492 43.4708L526.626 81.5474L533.186 83.9902L539.746 86.433L555.612 48.3563L549.052 45.9136ZM533.186 83.9902L535.879 77.5287L522.993 72.7304L520.301 79.1919L517.608 85.6534L530.494 90.4517L533.186 83.9902ZM520.301 79.1919L513.741 76.7491L508.452 89.4413L515.012 91.8841L521.572 94.3269L526.861 81.6346L520.301 79.1919ZM515.012 91.8841L517.704 85.4226L504.819 80.6243L502.126 87.0858L499.434 93.5473L512.32 98.3456L515.012 91.8841ZM502.126 87.0858L495.566 84.643L479.7 122.72L486.26 125.162L492.82 127.605L508.686 89.5285L502.126 87.0858ZM486.26 125.162L488.953 118.701L463.181 109.104L460.489 115.566L457.797 122.027L483.568 131.624L486.26 125.162Z" fill="white" mask="url(#path-7-outside-4_3_288)"/>
<mask id="path-9-outside-5_3_288" maskUnits="userSpaceOnUse" x="532.984" y="65.1933" width="161.217" height="152.425" fill="black">
<rect fill="white" x="532.984" y="65.1933" width="161.217" height="152.425"/>
<path d="M543.677 143.328L591.958 94.3835L602.272 103.476L611.928 93.6872L622.243 102.78L631.899 92.9909L662.842 120.269L653.186 130.058L663.5 139.15L653.844 148.939L664.159 158.032L615.878 206.976L595.249 188.791L614.562 169.213L583.618 141.935L564.306 161.513L543.677 143.328ZM593.274 132.146L624.218 159.424L643.53 139.846L633.216 130.754L642.872 120.965L632.557 111.872L622.901 121.661L612.587 112.569L593.274 132.146Z"/>
</mask>
<path d="M543.677 143.328L591.958 94.3835L602.272 103.476L611.928 93.6872L622.243 102.78L631.899 92.9909L662.842 120.269L653.186 130.058L663.5 139.15L653.844 148.939L664.159 158.032L615.878 206.976L595.249 188.791L614.562 169.213L583.618 141.935L564.306 161.513L543.677 143.328ZM593.274 132.146L624.218 159.424L643.53 139.846L633.216 130.754L642.872 120.965L632.557 111.872L622.901 121.661L612.587 112.569L593.274 132.146Z" fill="black"/>
<path d="M543.677 143.328L538.426 138.699L533.51 143.682L538.761 148.311L543.677 143.328ZM591.958 94.3835L596.874 89.4L591.623 84.7711L586.707 89.7545L591.958 94.3835ZM602.272 103.476L597.356 108.459L602.607 113.088L607.523 108.105L602.272 103.476ZM611.928 93.6872L616.844 88.7038L611.593 84.0748L606.677 89.0582L611.928 93.6872ZM622.243 102.78L617.327 107.763L622.578 112.392L627.494 107.409L622.243 102.78ZM631.899 92.9909L636.815 88.0075L631.564 83.3785L626.648 88.3619L631.899 92.9909ZM662.842 120.269L668.093 124.898L673.009 119.914L667.758 115.285L662.842 120.269ZM653.186 130.058L647.935 125.429L643.019 130.412L648.27 135.041L653.186 130.058ZM663.5 139.15L668.751 143.779L673.667 138.796L668.416 134.167L663.5 139.15ZM653.844 148.939L648.593 144.31L643.678 149.293L648.929 153.922L653.844 148.939ZM664.159 158.032L669.41 162.661L674.326 157.677L669.075 153.048L664.159 158.032ZM615.878 206.976L610.962 211.959L616.213 216.588L621.129 211.605L615.878 206.976ZM595.249 188.791L589.998 184.162L585.083 189.145L590.334 193.774L595.249 188.791ZM614.562 169.213L619.813 173.842L624.728 168.859L619.477 164.23L614.562 169.213ZM583.618 141.935L588.534 136.952L583.283 132.323L578.367 137.306L583.618 141.935ZM564.306 161.513L559.39 166.496L564.641 171.125L569.557 166.142L564.306 161.513ZM593.274 132.146L588.023 127.517L583.108 132.501L588.359 137.13L593.274 132.146ZM624.218 159.424L619.302 164.408L624.553 169.037L629.469 164.053L624.218 159.424ZM643.53 139.846L648.781 144.475L653.697 139.492L648.446 134.863L643.53 139.846ZM633.216 130.754L627.965 126.125L623.049 131.108L628.3 135.737L633.216 130.754ZM642.872 120.965L648.123 125.594L653.038 120.61L647.787 115.982L642.872 120.965ZM632.557 111.872L637.473 106.889L632.222 102.26L627.306 107.243L632.557 111.872ZM622.901 121.661L617.985 126.645L623.236 131.274L628.152 126.29L622.901 121.661ZM612.587 112.569L617.502 107.585L612.252 102.956L607.336 107.94L612.587 112.569ZM543.677 143.328L548.928 147.957L597.209 99.0124L591.958 94.3835L586.707 89.7545L538.426 138.699L543.677 143.328ZM591.958 94.3835L587.042 99.3669L597.356 108.459L602.272 103.476L607.188 98.4926L596.874 89.4L591.958 94.3835ZM602.272 103.476L607.523 108.105L617.179 98.3161L611.928 93.6872L606.677 89.0582L597.021 98.8471L602.272 103.476ZM611.928 93.6872L607.013 98.6706L617.327 107.763L622.243 102.78L627.159 97.7963L616.844 88.7038L611.928 93.6872ZM622.243 102.78L627.494 107.409L637.15 97.6199L631.899 92.9909L626.648 88.3619L616.992 98.1508L622.243 102.78ZM631.899 92.9909L626.983 97.9743L657.926 125.252L662.842 120.269L667.758 115.285L636.815 88.0075L631.899 92.9909ZM662.842 120.269L657.591 115.64L647.935 125.429L653.186 130.058L658.437 134.686L668.093 124.898L662.842 120.269ZM653.186 130.058L648.27 135.041L658.585 144.134L663.5 139.15L668.416 134.167L658.102 125.074L653.186 130.058ZM663.5 139.15L658.249 134.521L648.593 144.31L653.844 148.939L659.095 153.568L668.751 143.779L663.5 139.15ZM653.844 148.939L648.929 153.922L659.243 163.015L664.159 158.032L669.075 153.048L658.76 143.956L653.844 148.939ZM664.159 158.032L658.908 153.403L610.627 202.347L615.878 206.976L621.129 211.605L669.41 162.661L664.159 158.032ZM615.878 206.976L620.794 201.993L600.165 183.807L595.249 188.791L590.334 193.774L610.962 211.959L615.878 206.976ZM595.249 188.791L600.5 193.42L619.813 173.842L614.562 169.213L609.311 164.584L589.998 184.162L595.249 188.791ZM614.562 169.213L619.477 164.23L588.534 136.952L583.618 141.935L578.703 146.919L609.646 174.196L614.562 169.213ZM583.618 141.935L578.367 137.306L559.055 156.884L564.306 161.513L569.557 166.142L588.869 146.564L583.618 141.935ZM564.306 161.513L569.222 156.53L548.593 138.344L543.677 143.328L538.761 148.311L559.39 166.496L564.306 161.513ZM593.274 132.146L588.359 137.13L619.302 164.408L624.218 159.424L629.134 154.441L598.19 127.163L593.274 132.146ZM624.218 159.424L629.469 164.053L648.781 144.475L643.53 139.846L638.279 135.217L618.967 154.795L624.218 159.424ZM643.53 139.846L648.446 134.863L638.131 125.77L633.216 130.754L628.3 135.737L638.614 144.83L643.53 139.846ZM633.216 130.754L638.466 135.383L648.123 125.594L642.872 120.965L637.621 116.336L627.965 126.125L633.216 130.754ZM642.872 120.965L647.787 115.982L637.473 106.889L632.557 111.872L627.641 116.856L637.956 125.948L642.872 120.965ZM632.557 111.872L627.306 107.243L617.65 117.032L622.901 121.661L628.152 126.29L637.808 116.501L632.557 111.872ZM622.901 121.661L627.817 116.678L617.502 107.585L612.587 112.569L607.671 117.552L617.985 126.645L622.901 121.661ZM612.587 112.569L607.336 107.94L588.023 127.517L593.274 132.146L598.525 136.775L617.838 117.198L612.587 112.569Z" fill="white" mask="url(#path-9-outside-5_3_288)"/>
</svg>
