<svg width="801" height="398" viewBox="0 0 801 398" fill="none" xmlns="http://www.w3.org/2000/svg">
<g filter="url(#filter0_d_7_185)">
<mask id="path-1-outside-1_7_185" maskUnits="userSpaceOnUse" x="43.2916" y="141.242" width="207.134" height="215.516" fill="black">
<rect fill="white" x="43.2916" y="141.242" width="207.134" height="215.516"/>
<path d="M145.062 172.184C147.731 174.121 150.609 176.928 153.694 180.605C156.651 184.129 158.916 187.45 160.488 190.569C163.158 192.506 166.036 195.313 169.121 198.99C172.078 202.514 174.343 205.835 175.915 208.954C178.585 210.891 181.463 213.698 184.548 217.375C187.505 220.899 189.77 224.22 191.342 227.339C194.012 229.276 196.89 232.083 199.975 235.76C202.932 239.284 205.197 242.605 206.769 245.724C209.439 247.661 212.316 250.468 215.402 254.145C218.359 257.669 220.623 260.99 222.196 264.109C224.866 266.046 227.743 268.853 230.829 272.53C233.786 276.054 236.05 279.375 237.623 282.494L219.238 297.921C216.44 295.83 213.562 293.023 210.605 289.5C207.52 285.823 205.255 282.501 203.811 279.536C201.013 277.445 198.135 274.638 195.178 271.115C192.093 267.438 189.828 264.116 188.384 261.151C185.586 259.06 182.708 256.253 179.751 252.729C176.666 249.052 174.401 245.731 172.957 242.766C170.159 240.675 167.281 237.868 164.324 234.344C161.239 230.667 158.974 227.346 157.53 224.381C154.732 222.29 151.854 219.483 148.898 215.959C145.812 212.282 143.547 208.961 142.103 205.995L135.209 211.781C137.879 213.718 140.756 216.525 143.842 220.202C146.799 223.726 149.063 227.047 150.636 230.166C153.306 232.103 156.183 234.91 159.269 238.587C162.225 242.111 164.49 245.432 166.063 248.551L161.467 252.407C164.136 254.345 167.014 257.152 170.099 260.829C173.056 264.352 175.321 267.674 176.893 270.792C179.563 272.73 182.441 275.537 185.526 279.214C188.483 282.737 190.748 286.059 192.32 289.178L178.532 300.748C175.733 298.657 172.856 295.85 169.899 292.327C166.813 288.65 164.549 285.328 163.105 282.363C160.306 280.272 157.429 277.465 154.472 273.941C151.387 270.264 149.122 266.943 147.678 263.978L143.081 267.834C140.283 265.744 137.406 262.937 134.449 259.413C131.363 255.736 129.099 252.415 127.655 249.449C124.856 247.359 121.979 244.552 119.022 241.028C115.936 237.351 113.672 234.03 112.228 231.064L105.333 236.849C108.003 238.786 110.881 241.593 113.966 245.27C116.923 248.794 119.188 252.116 120.76 255.234C123.43 257.171 126.307 259.979 129.393 263.656C132.35 267.179 134.614 270.501 136.187 273.619C138.857 275.557 141.734 278.364 144.82 282.041C147.777 285.564 150.041 288.886 151.614 292.004C154.284 293.942 157.161 296.749 160.247 300.426C163.203 303.949 165.468 307.271 167.041 310.39C169.711 312.327 172.588 315.134 175.674 318.811C178.63 322.335 180.895 325.656 182.468 328.775L164.083 344.202C161.284 342.111 158.407 339.304 155.45 335.78C152.365 332.103 150.1 328.782 148.656 325.816C145.857 323.726 142.98 320.919 140.023 317.395C136.938 313.718 134.673 310.397 133.229 307.431C130.431 305.341 127.553 302.534 124.596 299.01C121.511 295.333 119.246 292.012 117.802 289.046C115.004 286.956 112.126 284.149 109.169 280.625C106.084 276.948 103.819 273.627 102.375 270.661C99.5768 268.571 96.6992 265.764 93.7424 262.24C90.657 258.563 88.3923 255.242 86.9482 252.276C84.1499 250.186 81.2723 247.379 78.3155 243.855C75.2301 240.178 72.9654 236.857 71.5213 233.891C68.723 231.801 65.8454 228.994 62.8886 225.47C59.8032 221.793 57.5385 218.472 56.0944 215.506L79.0757 196.222C81.7455 198.16 84.623 200.967 87.7084 204.644C90.6652 208.167 92.93 211.489 94.5026 214.608L101.397 208.822C104.067 210.76 106.944 213.567 110.03 217.244C112.987 220.767 115.251 224.089 116.824 227.207L120.271 224.315C122.941 226.252 125.818 229.059 128.904 232.736C131.861 236.26 134.125 239.581 135.698 242.7L142.592 236.915C139.794 234.825 136.917 232.018 133.96 228.494C130.874 224.817 128.61 221.495 127.166 218.53L130.613 215.637C127.814 213.547 124.937 210.74 121.98 207.216C118.895 203.539 116.63 200.218 115.186 197.252L122.08 191.467C119.282 189.377 116.404 186.57 113.447 183.046C110.362 179.369 108.097 176.048 106.653 173.082L129.635 153.798C132.304 155.736 135.182 158.543 138.267 162.22C141.224 165.743 143.489 169.065 145.062 172.184Z"/>
</mask>
<path d="M145.062 172.184C147.731 174.121 150.609 176.928 153.694 180.605C156.651 184.129 158.916 187.45 160.488 190.569C163.158 192.506 166.036 195.313 169.121 198.99C172.078 202.514 174.343 205.835 175.915 208.954C178.585 210.891 181.463 213.698 184.548 217.375C187.505 220.899 189.77 224.22 191.342 227.339C194.012 229.276 196.89 232.083 199.975 235.76C202.932 239.284 205.197 242.605 206.769 245.724C209.439 247.661 212.316 250.468 215.402 254.145C218.359 257.669 220.623 260.99 222.196 264.109C224.866 266.046 227.743 268.853 230.829 272.53C233.786 276.054 236.05 279.375 237.623 282.494L219.238 297.921C216.44 295.83 213.562 293.023 210.605 289.5C207.52 285.823 205.255 282.501 203.811 279.536C201.013 277.445 198.135 274.638 195.178 271.115C192.093 267.438 189.828 264.116 188.384 261.151C185.586 259.06 182.708 256.253 179.751 252.729C176.666 249.052 174.401 245.731 172.957 242.766C170.159 240.675 167.281 237.868 164.324 234.344C161.239 230.667 158.974 227.346 157.53 224.381C154.732 222.29 151.854 219.483 148.898 215.959C145.812 212.282 143.547 208.961 142.103 205.995L135.209 211.781C137.879 213.718 140.756 216.525 143.842 220.202C146.799 223.726 149.063 227.047 150.636 230.166C153.306 232.103 156.183 234.91 159.269 238.587C162.225 242.111 164.49 245.432 166.063 248.551L161.467 252.407C164.136 254.345 167.014 257.152 170.099 260.829C173.056 264.352 175.321 267.674 176.893 270.792C179.563 272.73 182.441 275.537 185.526 279.214C188.483 282.737 190.748 286.059 192.32 289.178L178.532 300.748C175.733 298.657 172.856 295.85 169.899 292.327C166.813 288.65 164.549 285.328 163.105 282.363C160.306 280.272 157.429 277.465 154.472 273.941C151.387 270.264 149.122 266.943 147.678 263.978L143.081 267.834C140.283 265.744 137.406 262.937 134.449 259.413C131.363 255.736 129.099 252.415 127.655 249.449C124.856 247.359 121.979 244.552 119.022 241.028C115.936 237.351 113.672 234.03 112.228 231.064L105.333 236.849C108.003 238.786 110.881 241.593 113.966 245.27C116.923 248.794 119.188 252.116 120.76 255.234C123.43 257.171 126.307 259.979 129.393 263.656C132.35 267.179 134.614 270.501 136.187 273.619C138.857 275.557 141.734 278.364 144.82 282.041C147.777 285.564 150.041 288.886 151.614 292.004C154.284 293.942 157.161 296.749 160.247 300.426C163.203 303.949 165.468 307.271 167.041 310.39C169.711 312.327 172.588 315.134 175.674 318.811C178.63 322.335 180.895 325.656 182.468 328.775L164.083 344.202C161.284 342.111 158.407 339.304 155.45 335.78C152.365 332.103 150.1 328.782 148.656 325.816C145.857 323.726 142.98 320.919 140.023 317.395C136.938 313.718 134.673 310.397 133.229 307.431C130.431 305.341 127.553 302.534 124.596 299.01C121.511 295.333 119.246 292.012 117.802 289.046C115.004 286.956 112.126 284.149 109.169 280.625C106.084 276.948 103.819 273.627 102.375 270.661C99.5768 268.571 96.6992 265.764 93.7424 262.24C90.657 258.563 88.3923 255.242 86.9482 252.276C84.1499 250.186 81.2723 247.379 78.3155 243.855C75.2301 240.178 72.9654 236.857 71.5213 233.891C68.723 231.801 65.8454 228.994 62.8886 225.47C59.8032 221.793 57.5385 218.472 56.0944 215.506L79.0757 196.222C81.7455 198.16 84.623 200.967 87.7084 204.644C90.6652 208.167 92.93 211.489 94.5026 214.608L101.397 208.822C104.067 210.76 106.944 213.567 110.03 217.244C112.987 220.767 115.251 224.089 116.824 227.207L120.271 224.315C122.941 226.252 125.818 229.059 128.904 232.736C131.861 236.26 134.125 239.581 135.698 242.7L142.592 236.915C139.794 234.825 136.917 232.018 133.96 228.494C130.874 224.817 128.61 221.495 127.166 218.53L130.613 215.637C127.814 213.547 124.937 210.74 121.98 207.216C118.895 203.539 116.63 200.218 115.186 197.252L122.08 191.467C119.282 189.377 116.404 186.57 113.447 183.046C110.362 179.369 108.097 176.048 106.653 173.082L129.635 153.798C132.304 155.736 135.182 158.543 138.267 162.22C141.224 165.743 143.489 169.065 145.062 172.184Z" fill="black"/>
<path d="M145.062 172.184L137.918 175.785L138.792 177.519L140.363 178.659L145.062 172.184ZM160.488 190.569L153.345 194.171L154.219 195.904L155.79 197.044L160.488 190.569ZM175.915 208.954L168.772 212.556L169.646 214.289L171.217 215.429L175.915 208.954ZM191.342 227.339L184.199 230.941L185.073 232.674L186.644 233.814L191.342 227.339ZM206.769 245.724L199.626 249.326L200.5 251.059L202.071 252.199L206.769 245.724ZM222.196 264.109L215.053 267.711L215.927 269.444L217.498 270.584L222.196 264.109ZM237.623 282.494L242.765 288.622L247.619 284.549L244.766 278.892L237.623 282.494ZM219.238 297.921L214.45 304.33L219.526 308.122L224.38 304.049L219.238 297.921ZM203.811 279.536L211.004 276.033L210.154 274.288L208.599 273.127L203.811 279.536ZM188.384 261.151L195.577 257.648L194.727 255.903L193.172 254.741L188.384 261.151ZM172.957 242.766L180.15 239.263L179.3 237.518L177.745 236.356L172.957 242.766ZM157.53 224.381L164.723 220.878L163.873 219.133L162.318 217.971L157.53 224.381ZM142.103 205.995L149.296 202.493L144.81 193.281L136.961 199.867L142.103 205.995ZM135.209 211.781L130.067 205.652L122.218 212.238L130.511 218.256L135.209 211.781ZM150.636 230.166L143.493 233.768L144.367 235.501L145.938 236.641L150.636 230.166ZM166.063 248.551L171.205 254.679L176.059 250.606L173.206 244.949L166.063 248.551ZM161.467 252.407L156.324 246.279L148.475 252.865L156.768 258.883L161.467 252.407ZM176.893 270.792L169.75 274.394L170.624 276.128L172.195 277.268L176.893 270.792ZM192.32 289.178L197.463 295.306L202.316 291.233L199.464 285.576L192.32 289.178ZM178.532 300.748L173.744 307.157L178.82 310.949L183.674 306.876L178.532 300.748ZM163.105 282.363L170.297 278.86L169.447 277.115L167.892 275.953L163.105 282.363ZM147.678 263.978L154.87 260.475L150.384 251.263L142.535 257.849L147.678 263.978ZM143.081 267.834L138.294 274.244L143.37 278.035L148.224 273.963L143.081 267.834ZM127.655 249.449L134.847 245.947L133.997 244.202L132.442 243.04L127.655 249.449ZM112.228 231.064L119.42 227.562L114.934 218.35L107.085 224.936L112.228 231.064ZM105.333 236.849L100.191 230.721L92.3419 237.307L100.635 243.324L105.333 236.849ZM120.76 255.234L113.617 258.836L114.491 260.57L116.062 261.709L120.76 255.234ZM136.187 273.619L129.044 277.221L129.918 278.955L131.489 280.095L136.187 273.619ZM151.614 292.004L144.471 295.606L145.345 297.34L146.916 298.48L151.614 292.004ZM167.041 310.39L159.898 313.992L160.772 315.725L162.343 316.865L167.041 310.39ZM182.468 328.775L187.61 334.903L192.464 330.83L189.611 325.173L182.468 328.775ZM164.083 344.202L159.295 350.611L164.371 354.403L169.225 350.33L164.083 344.202ZM148.656 325.816L155.848 322.314L154.999 320.569L153.443 319.407L148.656 325.816ZM133.229 307.431L140.421 303.929L139.572 302.184L138.017 301.022L133.229 307.431ZM117.802 289.046L124.995 285.544L124.145 283.799L122.59 282.637L117.802 289.046ZM102.375 270.661L109.568 267.159L108.718 265.414L107.163 264.252L102.375 270.661ZM86.9482 252.276L94.1407 248.774L93.2909 247.029L91.7358 245.867L86.9482 252.276ZM71.5213 233.891L78.7138 230.389L77.864 228.644L76.3089 227.482L71.5213 233.891ZM56.0944 215.506L50.9521 209.378L46.1672 213.393L48.9018 219.008L56.0944 215.506ZM79.0757 196.222L83.7739 189.747L78.7183 186.079L73.9334 190.094L79.0757 196.222ZM94.5026 214.608L87.3594 218.209L91.9072 227.229L99.6449 220.736L94.5026 214.608ZM101.397 208.822L106.095 202.347L101.04 198.679L96.2547 202.694L101.397 208.822ZM116.824 227.207L109.681 230.809L114.229 239.829L121.966 233.336L116.824 227.207ZM120.271 224.315L124.969 217.84L119.914 214.172L115.129 218.187L120.271 224.315ZM135.698 242.7L128.555 246.302L133.103 255.321L140.84 248.828L135.698 242.7ZM142.592 236.915L147.735 243.043L155.472 236.551L147.38 230.506L142.592 236.915ZM127.166 218.53L122.023 212.401L117.238 216.416L119.973 222.032L127.166 218.53ZM130.613 215.637L135.755 221.766L143.493 215.273L135.4 209.228L130.613 215.637ZM115.186 197.252L110.044 191.124L105.259 195.139L107.993 200.755L115.186 197.252ZM122.08 191.467L127.223 197.595L134.96 191.103L126.868 185.058L122.08 191.467ZM106.653 173.082L101.511 166.954L96.7261 170.969L99.4607 176.584L106.653 173.082ZM129.635 153.798L134.333 147.323L129.277 143.655L124.492 147.67L129.635 153.798ZM145.062 172.184L140.363 178.659C142.324 180.081 144.729 182.366 147.566 185.747L153.694 180.605L159.823 175.462C156.489 171.49 153.139 168.16 149.76 165.708L145.062 172.184ZM153.694 180.605L147.566 185.747C150.243 188.938 152.122 191.744 153.345 194.171L160.488 190.569L167.632 186.967C165.71 183.155 163.059 179.319 159.823 175.462L153.694 180.605ZM160.488 190.569L155.79 197.044C157.751 198.466 160.156 200.751 162.993 204.132L169.121 198.99L175.25 193.847C171.916 189.875 168.566 186.545 165.187 184.093L160.488 190.569ZM169.121 198.99L162.993 204.132C165.67 207.323 167.549 210.129 168.772 212.556L175.915 208.954L183.059 205.352C181.137 201.54 178.486 197.704 175.25 193.847L169.121 198.99ZM175.915 208.954L171.217 215.429C173.177 216.851 175.583 219.136 178.42 222.517L184.548 217.375L190.676 212.233C187.343 208.26 183.993 204.93 180.614 202.479L175.915 208.954ZM184.548 217.375L178.42 222.517C181.097 225.708 182.976 228.515 184.199 230.941L191.342 227.339L198.485 223.737C196.564 219.925 193.913 216.089 190.676 212.233L184.548 217.375ZM191.342 227.339L186.644 233.814C188.604 235.236 191.009 237.521 193.847 240.902L199.975 235.76L206.103 230.618C202.77 226.645 199.42 223.316 196.04 220.864L191.342 227.339ZM199.975 235.76L193.847 240.902C196.524 244.093 198.403 246.9 199.626 249.326L206.769 245.724L213.912 242.122C211.99 238.31 209.34 234.474 206.103 230.618L199.975 235.76ZM206.769 245.724L202.071 252.199C204.031 253.621 206.436 255.906 209.274 259.287L215.402 254.145L221.53 249.003C218.197 245.03 214.847 241.701 211.467 239.249L206.769 245.724ZM215.402 254.145L209.274 259.287C211.951 262.478 213.829 265.285 215.053 267.711L222.196 264.109L229.339 260.507C227.417 256.695 224.767 252.86 221.53 249.003L215.402 254.145ZM222.196 264.109L217.498 270.584C219.458 272.006 221.863 274.291 224.7 277.672L230.829 272.53L236.957 267.388C233.624 263.415 230.274 260.086 226.894 257.634L222.196 264.109ZM230.829 272.53L224.7 277.672C227.378 280.863 229.256 283.67 230.48 286.096L237.623 282.494L244.766 278.892C242.844 275.08 240.193 271.245 236.957 267.388L230.829 272.53ZM237.623 282.494L232.481 276.366L214.096 291.792L219.238 297.921L224.38 304.049L242.765 288.622L237.623 282.494ZM219.238 297.921L224.026 291.512C221.849 289.886 219.411 287.548 216.734 284.357L210.605 289.5L204.477 294.642C207.713 298.499 211.03 301.775 214.45 304.33L219.238 297.921ZM210.605 289.5L216.734 284.357C213.896 280.976 212.064 278.211 211.004 276.033L203.811 279.536L196.618 283.038C198.446 286.792 201.143 290.669 204.477 294.642L210.605 289.5ZM203.811 279.536L208.599 273.127C206.422 271.5 203.984 269.163 201.307 265.972L195.178 271.115L189.05 276.257C192.286 280.114 195.604 283.39 199.023 285.945L203.811 279.536ZM195.178 271.115L201.307 265.972C198.469 262.591 196.637 259.826 195.577 257.648L188.384 261.151L181.192 264.653C183.019 268.407 185.716 272.284 189.05 276.257L195.178 271.115ZM188.384 261.151L193.172 254.741C190.995 253.115 188.557 250.778 185.88 247.587L179.751 252.729L173.623 257.872C176.859 261.729 180.177 265.005 183.596 267.56L188.384 261.151ZM179.751 252.729L185.88 247.587C183.043 244.206 181.21 241.441 180.15 239.263L172.957 242.766L165.765 246.268C167.592 250.022 170.289 253.899 173.623 257.872L179.751 252.729ZM172.957 242.766L177.745 236.356C175.568 234.73 173.13 232.393 170.453 229.202L164.324 234.344L158.196 239.487C161.432 243.344 164.75 246.62 168.17 249.175L172.957 242.766ZM164.324 234.344L170.453 229.202C167.616 225.821 165.783 223.056 164.723 220.878L157.53 224.381L150.338 227.883C152.166 231.637 154.863 235.514 158.196 239.487L164.324 234.344ZM157.53 224.381L162.318 217.971C160.141 216.345 157.703 214.008 155.026 210.817L148.898 215.959L142.769 221.102C146.006 224.959 149.323 228.235 152.743 230.79L157.53 224.381ZM148.898 215.959L155.026 210.817C152.189 207.436 150.356 204.671 149.296 202.493L142.103 205.995L134.911 209.498C136.739 213.252 139.436 217.129 142.769 221.102L148.898 215.959ZM142.103 205.995L136.961 199.867L130.067 205.652L135.209 211.781L140.351 217.909L147.246 212.124L142.103 205.995ZM135.209 211.781L130.511 218.256C132.471 219.678 134.876 221.963 137.713 225.344L143.842 220.202L149.97 215.059C146.636 211.087 143.286 207.757 139.907 205.305L135.209 211.781ZM143.842 220.202L137.713 225.344C140.391 228.535 142.269 231.341 143.493 233.768L150.636 230.166L157.779 226.564C155.857 222.752 153.206 218.916 149.97 215.059L143.842 220.202ZM150.636 230.166L145.938 236.641C147.898 238.063 150.303 240.348 153.14 243.729L159.269 238.587L165.397 233.445C162.063 229.472 158.713 226.142 155.334 223.691L150.636 230.166ZM159.269 238.587L153.14 243.729C155.818 246.92 157.696 249.727 158.92 252.153L166.063 248.551L173.206 244.949C171.284 241.137 168.633 237.301 165.397 233.445L159.269 238.587ZM166.063 248.551L160.92 242.422L156.324 246.279L161.467 252.407L166.609 258.536L171.205 254.679L166.063 248.551ZM161.467 252.407L156.768 258.883C158.729 260.305 161.134 262.59 163.971 265.971L170.099 260.829L176.228 255.686C172.894 251.714 169.544 248.384 166.165 245.932L161.467 252.407ZM170.099 260.829L163.971 265.971C166.648 269.162 168.527 271.968 169.75 274.394L176.893 270.792L184.037 267.191C182.115 263.379 179.464 259.543 176.228 255.686L170.099 260.829ZM176.893 270.792L172.195 277.268C174.155 278.69 176.561 280.975 179.398 284.356L185.526 279.214L191.654 274.071C188.321 270.099 184.971 266.769 181.592 264.317L176.893 270.792ZM185.526 279.214L179.398 284.356C182.075 287.547 183.954 290.353 185.177 292.78L192.32 289.178L199.464 285.576C197.542 281.764 194.891 277.928 191.654 274.071L185.526 279.214ZM192.32 289.178L187.178 283.049L173.389 294.619L178.532 300.748L183.674 306.876L197.463 295.306L192.32 289.178ZM178.532 300.748L183.319 294.339C181.142 292.712 178.705 290.375 176.027 287.184L169.899 292.327L163.77 297.469C167.007 301.326 170.324 304.602 173.744 307.157L178.532 300.748ZM169.899 292.327L176.027 287.184C173.19 283.803 171.357 281.038 170.297 278.86L163.105 282.363L155.912 285.865C157.74 289.619 160.437 293.496 163.77 297.469L169.899 292.327ZM163.105 282.363L167.892 275.953C165.715 274.327 163.278 271.99 160.6 268.799L154.472 273.941L148.344 279.084C151.58 282.941 154.897 286.217 158.317 288.772L163.105 282.363ZM154.472 273.941L160.6 268.799C157.763 265.418 155.931 262.653 154.87 260.475L147.678 263.978L140.485 267.48C142.313 271.234 145.01 275.111 148.344 279.084L154.472 273.941ZM147.678 263.978L142.535 257.849L137.939 261.706L143.081 267.834L148.224 273.963L152.82 270.106L147.678 263.978ZM143.081 267.834L147.869 261.425C145.692 259.799 143.254 257.462 140.577 254.271L134.449 259.413L128.32 264.555C131.557 268.412 134.874 271.689 138.294 274.244L143.081 267.834ZM134.449 259.413L140.577 254.271C137.74 250.89 135.907 248.124 134.847 245.947L127.655 249.449L120.462 252.952C122.29 256.705 124.987 260.583 128.32 264.555L134.449 259.413ZM127.655 249.449L132.442 243.04C130.265 241.414 127.828 239.077 125.15 235.886L119.022 241.028L112.893 246.17C116.13 250.027 119.447 253.304 122.867 255.859L127.655 249.449ZM119.022 241.028L125.15 235.886C122.313 232.505 120.481 229.739 119.42 227.562L112.228 231.064L105.035 234.567C106.863 238.32 109.56 242.198 112.893 246.17L119.022 241.028ZM112.228 231.064L107.085 224.936L100.191 230.721L105.333 236.849L110.476 242.978L117.37 237.193L112.228 231.064ZM105.333 236.849L100.635 243.324C102.595 244.747 105 247.032 107.838 250.413L113.966 245.27L120.094 240.128C116.761 236.155 113.411 232.826 110.031 230.374L105.333 236.849ZM113.966 245.27L107.838 250.413C110.515 253.604 112.394 256.41 113.617 258.836L120.76 255.234L127.903 251.632C125.981 247.821 123.331 243.985 120.094 240.128L113.966 245.27ZM120.76 255.234L116.062 261.709C118.022 263.132 120.427 265.417 123.265 268.798L129.393 263.656L135.521 258.513C132.188 254.54 128.838 251.211 125.458 248.759L120.76 255.234ZM129.393 263.656L123.265 268.798C125.942 271.989 127.82 274.795 129.044 277.221L136.187 273.619L143.33 270.017C141.408 266.206 138.758 262.37 135.521 258.513L129.393 263.656ZM136.187 273.619L131.489 280.095C133.449 281.517 135.854 283.802 138.691 287.183L144.82 282.041L150.948 276.898C147.615 272.926 144.265 269.596 140.885 267.144L136.187 273.619ZM144.82 282.041L138.691 287.183C141.369 290.374 143.247 293.18 144.471 295.606L151.614 292.004L158.757 288.403C156.835 284.591 154.184 280.755 150.948 276.898L144.82 282.041ZM151.614 292.004L146.916 298.48C148.876 299.902 151.281 302.187 154.118 305.568L160.247 300.426L166.375 295.283C163.041 291.311 159.691 287.981 156.312 285.529L151.614 292.004ZM160.247 300.426L154.118 305.568C156.796 308.759 158.674 311.565 159.898 313.992L167.041 310.39L174.184 306.788C172.262 302.976 169.611 299.14 166.375 295.283L160.247 300.426ZM167.041 310.39L162.343 316.865C164.303 318.287 166.708 320.572 169.545 323.953L175.674 318.811L181.802 313.668C178.468 309.696 175.118 306.366 171.739 303.914L167.041 310.39ZM175.674 318.811L169.545 323.953C172.223 327.144 174.101 329.95 175.325 332.377L182.468 328.775L189.611 325.173C187.689 321.361 185.038 317.525 181.802 313.668L175.674 318.811ZM182.468 328.775L177.325 322.646L158.94 338.073L164.083 344.202L169.225 350.33L187.61 334.903L182.468 328.775ZM164.083 344.202L168.87 337.792C166.694 336.166 164.256 333.829 161.578 330.638L155.45 335.78L149.322 340.923C152.558 344.78 155.875 348.056 159.295 350.611L164.083 344.202ZM155.45 335.78L161.578 330.638C158.741 327.257 156.909 324.491 155.848 322.314L148.656 325.816L141.463 329.319C143.291 333.073 145.988 336.95 149.322 340.923L155.45 335.78ZM148.656 325.816L153.443 319.407C151.267 317.781 148.829 315.444 146.151 312.253L140.023 317.395L133.895 322.538C137.131 326.394 140.448 329.671 143.868 332.226L148.656 325.816ZM140.023 317.395L146.151 312.253C143.314 308.872 141.482 306.106 140.421 303.929L133.229 307.431L126.036 310.934C127.864 314.688 130.561 318.565 133.895 322.538L140.023 317.395ZM133.229 307.431L138.017 301.022C135.84 299.396 133.402 297.059 130.725 293.868L124.596 299.01L118.468 304.153C121.704 308.009 125.021 311.286 128.441 313.841L133.229 307.431ZM124.596 299.01L130.725 293.868C127.887 290.487 126.055 287.721 124.995 285.544L117.802 289.046L110.609 292.549C112.437 296.302 115.134 300.18 118.468 304.153L124.596 299.01ZM117.802 289.046L122.59 282.637C120.413 281.011 117.975 278.674 115.298 275.483L109.169 280.625L103.041 285.767C106.277 289.624 109.595 292.901 113.014 295.456L117.802 289.046ZM109.169 280.625L115.298 275.483C112.46 272.102 110.628 269.336 109.568 267.159L102.375 270.661L95.1825 274.164C97.0104 277.917 99.7073 281.795 103.041 285.767L109.169 280.625ZM102.375 270.661L107.163 264.252C104.986 262.626 102.548 260.289 99.8707 257.098L93.7424 262.24L87.614 267.382C90.8503 271.239 94.1676 274.516 97.5874 277.071L102.375 270.661ZM93.7424 262.24L99.8707 257.098C97.0336 253.717 95.2011 250.951 94.1407 248.774L86.9482 252.276L79.7556 255.779C81.5835 259.532 84.2804 263.41 87.614 267.382L93.7424 262.24ZM86.9482 252.276L91.7358 245.867C89.559 244.241 87.1212 241.903 84.4438 238.713L78.3155 243.855L72.1871 248.997C75.4234 252.854 78.7407 256.131 82.1605 258.685L86.9482 252.276ZM78.3155 243.855L84.4438 238.713C81.6066 235.331 79.7741 232.566 78.7138 230.389L71.5213 233.891L64.3287 237.394C66.1566 241.147 68.8535 245.025 72.1871 248.997L78.3155 243.855ZM71.5213 233.891L76.3089 227.482C74.1321 225.856 71.6943 223.518 69.0169 220.328L62.8886 225.47L56.7602 230.612C59.9965 234.469 63.3138 237.746 66.7336 240.3L71.5213 233.891ZM62.8886 225.47L69.0169 220.328C66.1797 216.946 64.3472 214.181 63.2869 212.004L56.0944 215.506L48.9018 219.008C50.7297 222.762 53.4266 226.639 56.7602 230.612L62.8886 225.47ZM56.0944 215.506L61.2367 221.634L84.218 202.351L79.0757 196.222L73.9334 190.094L50.9521 209.378L56.0944 215.506ZM79.0757 196.222L74.3775 202.698C76.3378 204.12 78.7429 206.405 81.58 209.786L87.7084 204.644L93.8368 199.501C90.5032 195.529 87.1531 192.199 83.7739 189.747L79.0757 196.222ZM87.7084 204.644L81.58 209.786C84.2574 212.977 86.136 215.783 87.3594 218.209L94.5026 214.608L101.646 211.006C99.7239 207.194 97.0731 203.358 93.8368 199.501L87.7084 204.644ZM94.5026 214.608L99.6449 220.736L106.539 214.951L101.397 208.822L96.2547 202.694L89.3603 208.479L94.5026 214.608ZM101.397 208.822L96.6988 215.298C98.6591 216.72 101.064 219.005 103.901 222.386L110.03 217.244L116.158 212.101C112.824 208.128 109.474 204.799 106.095 202.347L101.397 208.822ZM110.03 217.244L103.901 222.386C106.579 225.577 108.457 228.383 109.681 230.809L116.824 227.207L123.967 223.606C122.045 219.794 119.394 215.958 116.158 212.101L110.03 217.244ZM116.824 227.207L121.966 233.336L125.413 230.443L120.271 224.315L115.129 218.187L111.682 221.079L116.824 227.207ZM120.271 224.315L115.573 230.79C117.533 232.212 119.938 234.497 122.775 237.878L128.904 232.736L135.032 227.594C131.699 223.621 128.349 220.292 124.969 217.84L120.271 224.315ZM128.904 232.736L122.775 237.878C125.453 241.069 127.331 243.876 128.555 246.302L135.698 242.7L142.841 239.098C140.919 235.287 138.268 231.451 135.032 227.594L128.904 232.736ZM135.698 242.7L140.84 248.828L147.735 243.043L142.592 236.915L137.45 230.787L130.556 236.572L135.698 242.7ZM142.592 236.915L147.38 230.506C145.203 228.88 142.765 226.542 140.088 223.351L133.96 228.494L127.831 233.636C131.068 237.493 134.385 240.77 137.805 243.324L142.592 236.915ZM133.96 228.494L140.088 223.351C137.251 219.97 135.418 217.205 134.358 215.027L127.166 218.53L119.973 222.032C121.801 225.786 124.498 229.663 127.831 233.636L133.96 228.494ZM127.166 218.53L132.308 224.658L135.755 221.766L130.613 215.637L125.47 209.509L122.023 212.401L127.166 218.53ZM130.613 215.637L135.4 209.228C133.224 207.602 130.786 205.265 128.108 202.074L121.98 207.216L115.852 212.358C119.088 216.215 122.405 219.492 125.825 222.047L130.613 215.637ZM121.98 207.216L128.108 202.074C125.271 198.693 123.439 195.927 122.378 193.75L115.186 197.252L107.993 200.755C109.821 204.508 112.518 208.386 115.852 212.358L121.98 207.216ZM115.186 197.252L120.328 203.381L127.223 197.595L122.08 191.467L116.938 185.339L110.044 191.124L115.186 197.252ZM122.08 191.467L126.868 185.058C124.691 183.432 122.253 181.094 119.576 177.904L113.447 183.046L107.319 188.188C110.555 192.045 113.873 195.322 117.293 197.876L122.08 191.467ZM113.447 183.046L119.576 177.904C116.739 174.522 114.906 171.757 113.846 169.58L106.653 173.082L99.4607 176.584C101.289 180.338 103.986 184.215 107.319 188.188L113.447 183.046ZM106.653 173.082L111.796 179.21L134.777 159.927L129.635 153.798L124.492 147.67L101.511 166.954L106.653 173.082ZM129.635 153.798L124.936 160.274C126.897 161.696 129.302 163.981 132.139 167.362L138.267 162.22L144.396 157.077C141.062 153.105 137.712 149.775 134.333 147.323L129.635 153.798ZM138.267 162.22L132.139 167.362C134.816 170.553 136.695 173.359 137.918 175.785L145.062 172.184L152.205 168.582C150.283 164.77 147.632 160.934 144.396 157.077L138.267 162.22Z" fill="white" mask="url(#path-1-outside-1_7_185)"/>
<mask id="path-3-outside-2_7_185" maskUnits="userSpaceOnUse" x="179.306" y="74.1432" width="171.936" height="212.578" fill="black">
<rect fill="white" x="179.306" y="74.1432" width="171.936" height="212.578"/>
<path d="M327.924 208.71C329.497 213.032 330.49 216.928 330.901 220.397C332.747 223.13 334.491 226.752 336.133 231.263C337.706 235.585 338.698 239.481 339.109 242.949L316.557 251.158C314.642 248.236 312.898 244.614 311.325 240.292C309.683 235.781 308.691 231.886 308.348 228.605C306.433 225.684 304.689 222.062 303.116 217.739C301.474 213.229 300.482 209.333 300.14 206.053L255.034 222.469C256.881 225.203 258.625 228.825 260.266 233.335C261.839 237.658 262.832 241.554 263.243 245.022C265.089 247.755 266.833 251.377 268.475 255.888C270.048 260.211 271.04 264.106 271.451 267.575L248.899 275.783C246.984 272.862 245.24 269.24 243.667 264.917C242.025 260.407 241.033 256.511 240.69 253.231C238.776 250.309 237.032 246.687 235.458 242.365C233.817 237.854 232.824 233.959 232.482 230.678L240.939 227.6C239.024 224.678 237.28 221.056 235.707 216.734C234.065 212.223 233.073 208.328 232.73 205.047C230.816 202.126 229.072 198.504 227.499 194.181C225.857 189.671 224.865 185.775 224.522 182.495L230.16 180.442C228.246 177.521 226.502 173.899 224.928 169.577C223.287 165.066 222.294 161.17 221.952 157.89L230.409 154.812C228.494 151.89 226.75 148.268 225.177 143.946C223.535 139.435 222.543 135.54 222.2 132.259L227.839 130.207C225.924 127.286 224.18 123.664 222.607 119.341C220.965 114.83 219.973 110.935 219.63 107.654L253.459 95.3415C255.305 98.0749 257.049 101.697 258.691 106.207C260.264 110.53 261.256 114.426 261.667 117.894L267.306 115.842C269.152 118.575 270.896 122.197 272.538 126.708C274.111 131.03 275.103 134.926 275.514 138.395L283.971 135.316C285.818 138.05 287.562 141.672 289.203 146.182C290.777 150.505 291.769 154.401 292.18 157.869L297.818 155.817C299.664 158.55 301.408 162.172 303.05 166.683C304.623 171.005 305.615 174.901 306.026 178.37C307.873 181.103 309.617 184.725 311.258 189.235C312.832 193.558 313.824 197.454 314.235 200.922L322.692 197.844C324.538 200.577 326.282 204.199 327.924 208.71ZM283.474 186.578C281.559 183.657 279.815 180.035 278.242 175.712C276.6 171.202 275.608 167.306 275.265 164.025L269.627 166.078C267.713 163.156 265.969 159.534 264.395 155.212C262.754 150.701 261.761 146.806 261.419 143.525L244.504 149.681C246.35 152.415 248.094 156.037 249.736 160.547C251.309 164.87 252.302 168.765 252.713 172.234L247.075 174.286C248.921 177.019 250.665 180.641 252.306 185.152C253.88 189.475 254.872 193.37 255.283 196.839L283.474 186.578Z"/>
</mask>
<path d="M327.924 208.71C329.497 213.032 330.49 216.928 330.901 220.397C332.747 223.13 334.491 226.752 336.133 231.263C337.706 235.585 338.698 239.481 339.109 242.949L316.557 251.158C314.642 248.236 312.898 244.614 311.325 240.292C309.683 235.781 308.691 231.886 308.348 228.605C306.433 225.684 304.689 222.062 303.116 217.739C301.474 213.229 300.482 209.333 300.14 206.053L255.034 222.469C256.881 225.203 258.625 228.825 260.266 233.335C261.839 237.658 262.832 241.554 263.243 245.022C265.089 247.755 266.833 251.377 268.475 255.888C270.048 260.211 271.04 264.106 271.451 267.575L248.899 275.783C246.984 272.862 245.24 269.24 243.667 264.917C242.025 260.407 241.033 256.511 240.69 253.231C238.776 250.309 237.032 246.687 235.458 242.365C233.817 237.854 232.824 233.959 232.482 230.678L240.939 227.6C239.024 224.678 237.28 221.056 235.707 216.734C234.065 212.223 233.073 208.328 232.73 205.047C230.816 202.126 229.072 198.504 227.499 194.181C225.857 189.671 224.865 185.775 224.522 182.495L230.16 180.442C228.246 177.521 226.502 173.899 224.928 169.577C223.287 165.066 222.294 161.17 221.952 157.89L230.409 154.812C228.494 151.89 226.75 148.268 225.177 143.946C223.535 139.435 222.543 135.54 222.2 132.259L227.839 130.207C225.924 127.286 224.18 123.664 222.607 119.341C220.965 114.83 219.973 110.935 219.63 107.654L253.459 95.3415C255.305 98.0749 257.049 101.697 258.691 106.207C260.264 110.53 261.256 114.426 261.667 117.894L267.306 115.842C269.152 118.575 270.896 122.197 272.538 126.708C274.111 131.03 275.103 134.926 275.514 138.395L283.971 135.316C285.818 138.05 287.562 141.672 289.203 146.182C290.777 150.505 291.769 154.401 292.18 157.869L297.818 155.817C299.664 158.55 301.408 162.172 303.05 166.683C304.623 171.005 305.615 174.901 306.026 178.37C307.873 181.103 309.617 184.725 311.258 189.235C312.832 193.558 313.824 197.454 314.235 200.922L322.692 197.844C324.538 200.577 326.282 204.199 327.924 208.71ZM283.474 186.578C281.559 183.657 279.815 180.035 278.242 175.712C276.6 171.202 275.608 167.306 275.265 164.025L269.627 166.078C267.713 163.156 265.969 159.534 264.395 155.212C262.754 150.701 261.761 146.806 261.419 143.525L244.504 149.681C246.35 152.415 248.094 156.037 249.736 160.547C251.309 164.87 252.302 168.765 252.713 172.234L247.075 174.286C248.921 177.019 250.665 180.641 252.306 185.152C253.88 189.475 254.872 193.37 255.283 196.839L283.474 186.578Z" fill="black"/>
<path d="M330.901 220.397L322.956 221.338L323.185 223.266L324.271 224.874L330.901 220.397ZM339.109 242.949L341.845 250.467L347.799 248.3L347.054 242.008L339.109 242.949ZM316.557 251.158L309.866 255.543L313.339 260.842L319.293 258.675L316.557 251.158ZM308.348 228.605L316.305 227.774L316.103 225.843L315.039 224.22L308.348 228.605ZM300.14 206.053L308.096 205.221L307.032 195.031L297.403 198.535L300.14 206.053ZM255.034 222.469L252.298 214.952L242.67 218.456L248.405 226.947L255.034 222.469ZM263.243 245.022L255.298 245.964L255.527 247.891L256.613 249.5L263.243 245.022ZM271.451 267.575L274.187 275.092L280.141 272.925L279.396 266.633L271.451 267.575ZM248.899 275.783L242.208 280.168L245.681 285.468L251.635 283.301L248.899 275.783ZM240.69 253.231L248.647 252.399L248.445 250.469L247.381 248.845L240.69 253.231ZM232.482 230.678L229.746 223.16L223.876 225.297L224.525 231.509L232.482 230.678ZM240.939 227.6L243.675 235.117L253.167 231.663L247.63 223.215L240.939 227.6ZM232.73 205.047L240.687 204.216L240.485 202.285L239.421 200.662L232.73 205.047ZM224.522 182.495L221.786 174.977L215.916 177.113L216.565 183.326L224.522 182.495ZM230.16 180.442L232.896 187.96L242.388 184.505L236.851 176.057L230.16 180.442ZM221.952 157.89L219.215 150.372L213.346 152.509L213.995 158.721L221.952 157.89ZM230.409 154.812L233.145 162.329L242.637 158.874L237.1 150.426L230.409 154.812ZM222.2 132.259L219.464 124.741L213.595 126.878L214.244 133.09L222.2 132.259ZM227.839 130.207L230.575 137.724L240.066 134.27L234.53 125.822L227.839 130.207ZM219.63 107.654L216.894 100.137L211.024 102.273L211.673 108.485L219.63 107.654ZM253.459 95.3415L260.088 90.8638L256.592 85.6876L250.723 87.824L253.459 95.3415ZM261.667 117.894L253.723 118.836L254.912 128.866L264.404 125.412L261.667 117.894ZM267.306 115.842L273.935 111.364L270.439 106.188L264.569 108.324L267.306 115.842ZM275.514 138.395L267.57 139.336L268.759 149.367L278.25 145.912L275.514 138.395ZM283.971 135.316L290.601 130.839L287.105 125.663L281.235 127.799L283.971 135.316ZM292.18 157.869L284.235 158.811L285.424 168.841L294.916 165.387L292.18 157.869ZM297.818 155.817L304.447 151.339L300.951 146.163L295.082 148.299L297.818 155.817ZM306.026 178.37L298.082 179.311L298.311 181.239L299.397 182.847L306.026 178.37ZM314.235 200.922L306.291 201.864L307.479 211.894L316.971 208.44L314.235 200.922ZM322.692 197.844L329.322 193.366L325.826 188.19L319.956 190.326L322.692 197.844ZM283.474 186.578L286.21 194.096L295.702 190.641L290.165 182.193L283.474 186.578ZM275.265 164.025L283.222 163.194L282.157 153.003L272.529 156.508L275.265 164.025ZM269.627 166.078L262.936 170.463L266.409 175.762L272.363 173.595L269.627 166.078ZM261.419 143.525L269.375 142.694L268.311 132.503L258.683 136.007L261.419 143.525ZM244.504 149.681L241.768 142.164L232.14 145.668L237.875 154.159L244.504 149.681ZM252.713 172.234L255.449 179.751L261.403 177.584L260.657 171.292L252.713 172.234ZM247.075 174.286L244.338 166.768L234.71 170.273L240.445 178.764L247.075 174.286ZM255.283 196.839L247.339 197.78L248.528 207.811L258.019 204.356L255.283 196.839ZM327.924 208.71L320.407 211.446C321.831 215.36 322.636 218.64 322.956 221.338L330.901 220.397L338.845 219.455C338.343 215.216 337.164 210.705 335.442 205.974L327.924 208.71ZM330.901 220.397L324.271 224.874C325.627 226.881 327.105 229.851 328.615 233.999L336.133 231.263L343.65 228.526C341.876 223.653 339.867 219.379 337.53 215.919L330.901 220.397ZM336.133 231.263L328.615 233.999C330.04 237.913 330.845 241.193 331.165 243.891L339.109 242.949L347.054 242.008C346.551 237.769 345.372 233.258 343.65 228.526L336.133 231.263ZM339.109 242.949L336.373 235.432L313.82 243.64L316.557 251.158L319.293 258.675L341.845 250.467L339.109 242.949ZM316.557 251.158L323.248 246.773C321.758 244.5 320.267 241.47 318.842 237.556L311.325 240.292L303.807 243.028C305.529 247.759 307.526 251.973 309.866 255.543L316.557 251.158ZM311.325 240.292L318.842 237.556C317.333 233.408 316.556 230.183 316.305 227.774L308.348 228.605L300.391 229.436C300.825 233.589 302.033 238.155 303.807 243.028L311.325 240.292ZM308.348 228.605L315.039 224.22C313.55 221.947 312.058 218.917 310.634 215.003L303.116 217.739L295.599 220.475C297.321 225.207 299.317 229.42 301.657 232.99L308.348 228.605ZM303.116 217.739L310.634 215.003C309.124 210.855 308.348 207.63 308.096 205.221L300.14 206.053L292.183 206.884C292.617 211.036 293.825 215.602 295.599 220.475L303.116 217.739ZM300.14 206.053L297.403 198.535L252.298 214.952L255.034 222.469L257.77 229.987L302.876 213.57L300.14 206.053ZM255.034 222.469L248.405 226.947C249.76 228.954 251.239 231.924 252.749 236.072L260.266 233.335L267.784 230.599C266.01 225.726 264.001 221.452 261.664 217.992L255.034 222.469ZM260.266 233.335L252.749 236.072C254.173 239.986 254.979 243.265 255.298 245.964L263.243 245.022L271.187 244.08C270.685 239.842 269.506 235.33 267.784 230.599L260.266 233.335ZM263.243 245.022L256.613 249.5C257.969 251.507 259.448 254.476 260.957 258.624L268.475 255.888L275.992 253.152C274.218 248.278 272.209 244.004 269.872 240.544L263.243 245.022ZM268.475 255.888L260.957 258.624C262.382 262.538 263.187 265.818 263.507 268.516L271.451 267.575L279.396 266.633C278.893 262.394 277.714 257.883 275.992 253.152L268.475 255.888ZM271.451 267.575L268.715 260.057L246.163 268.266L248.899 275.783L251.635 283.301L274.187 275.092L271.451 267.575ZM248.899 275.783L255.59 271.398C254.1 269.125 252.609 266.095 251.184 262.181L243.667 264.917L236.149 267.653C237.871 272.385 239.868 276.598 242.208 280.168L248.899 275.783ZM243.667 264.917L251.184 262.181C249.675 258.033 248.899 254.808 248.647 252.399L240.69 253.231L232.733 254.062C233.167 258.214 234.375 262.78 236.149 267.653L243.667 264.917ZM240.69 253.231L247.381 248.845C245.892 246.573 244.4 243.543 242.976 239.629L235.458 242.365L227.941 245.101C229.663 249.832 231.659 254.046 233.999 257.616L240.69 253.231ZM235.458 242.365L242.976 239.629C241.466 235.481 240.69 232.256 240.438 229.847L232.482 230.678L224.525 231.509C224.959 235.662 226.167 240.227 227.941 245.101L235.458 242.365ZM232.482 230.678L235.218 238.195L243.675 235.117L240.939 227.6L238.203 220.082L229.746 223.16L232.482 230.678ZM240.939 227.6L247.63 223.215C246.141 220.942 244.649 217.912 243.225 213.998L235.707 216.734L228.19 219.47C229.912 224.201 231.908 228.415 234.248 231.985L240.939 227.6ZM235.707 216.734L243.225 213.998C241.715 209.85 240.939 206.625 240.687 204.216L232.73 205.047L224.774 205.878C225.208 210.031 226.416 214.597 228.19 219.47L235.707 216.734ZM232.73 205.047L239.421 200.662C237.932 198.389 236.441 195.359 235.016 191.445L227.499 194.181L219.981 196.917C221.703 201.649 223.7 205.862 226.039 209.432L232.73 205.047ZM227.499 194.181L235.016 191.445C233.506 187.297 232.73 184.072 232.479 181.663L224.522 182.495L216.565 183.326C216.999 187.478 218.207 192.044 219.981 196.917L227.499 194.181ZM224.522 182.495L227.258 190.012L232.896 187.96L230.16 180.442L227.424 172.925L221.786 174.977L224.522 182.495ZM230.16 180.442L236.851 176.057C235.362 173.785 233.87 170.754 232.446 166.84L224.928 169.577L217.411 172.313C219.133 177.044 221.129 181.257 223.469 184.828L230.16 180.442ZM224.928 169.577L232.446 166.84C230.936 162.693 230.16 159.467 229.908 157.059L221.952 157.89L213.995 158.721C214.429 162.873 215.637 167.439 217.411 172.313L224.928 169.577ZM221.952 157.89L224.688 165.407L233.145 162.329L230.409 154.812L227.673 147.294L219.215 150.372L221.952 157.89ZM230.409 154.812L237.1 150.426C235.61 148.154 234.119 145.124 232.695 141.21L225.177 143.946L217.659 146.682C219.381 151.413 221.378 155.627 223.718 159.197L230.409 154.812ZM225.177 143.946L232.695 141.21C231.185 137.062 230.409 133.837 230.157 131.428L222.2 132.259L214.244 133.09C214.677 137.243 215.886 141.809 217.659 146.682L225.177 143.946ZM222.2 132.259L224.937 139.777L230.575 137.724L227.839 130.207L225.102 122.689L219.464 124.741L222.2 132.259ZM227.839 130.207L234.53 125.822C233.04 123.549 231.549 120.519 230.124 116.605L222.607 119.341L215.089 122.077C216.811 126.808 218.808 131.022 221.148 134.592L227.839 130.207ZM222.607 119.341L230.124 116.605C228.615 112.457 227.838 109.232 227.587 106.823L219.63 107.654L211.673 108.485C212.107 112.638 213.315 117.204 215.089 122.077L222.607 119.341ZM219.63 107.654L222.366 115.172L256.195 102.859L253.459 95.3415L250.723 87.824L216.894 100.137L219.63 107.654ZM253.459 95.3415L246.83 99.8192C248.185 101.826 249.664 104.796 251.173 108.944L258.691 106.207L266.208 103.471C264.435 98.5979 262.425 94.3236 260.088 90.8638L253.459 95.3415ZM258.691 106.207L251.173 108.944C252.598 112.858 253.403 116.138 253.723 118.836L261.667 117.894L269.612 116.953C269.109 112.714 267.93 108.202 266.208 103.471L258.691 106.207ZM261.667 117.894L264.404 125.412L270.042 123.36L267.306 115.842L264.569 108.324L258.931 110.377L261.667 117.894ZM267.306 115.842L260.676 120.32C262.032 122.327 263.51 125.296 265.02 129.444L272.538 126.708L280.055 123.972C278.281 119.098 276.272 114.824 273.935 111.364L267.306 115.842ZM272.538 126.708L265.02 129.444C266.445 133.358 267.25 136.638 267.57 139.336L275.514 138.395L283.459 137.453C282.956 133.214 281.777 128.703 280.055 123.972L272.538 126.708ZM275.514 138.395L278.25 145.912L286.708 142.834L283.971 135.316L281.235 127.799L272.778 130.877L275.514 138.395ZM283.971 135.316L277.342 139.794C278.697 141.801 280.176 144.771 281.686 148.918L289.203 146.182L296.721 143.446C294.947 138.573 292.938 134.299 290.601 130.839L283.971 135.316ZM289.203 146.182L281.686 148.918C283.11 152.833 283.916 156.112 284.235 158.811L292.18 157.869L300.124 156.927C299.622 152.689 298.443 148.177 296.721 143.446L289.203 146.182ZM292.18 157.869L294.916 165.387L300.554 163.334L297.818 155.817L295.082 148.299L289.444 150.352L292.18 157.869ZM297.818 155.817L291.189 160.295C292.544 162.302 294.023 165.271 295.532 169.419L303.05 166.683L310.567 163.947C308.794 159.073 306.784 154.799 304.447 151.339L297.818 155.817ZM303.05 166.683L295.532 169.419C296.957 173.333 297.762 176.613 298.082 179.311L306.026 178.37L313.971 177.428C313.468 173.189 312.289 168.678 310.567 163.947L303.05 166.683ZM306.026 178.37L299.397 182.847C300.753 184.854 302.231 187.824 303.741 191.972L311.258 189.235L318.776 186.499C317.002 181.626 314.993 177.352 312.656 173.892L306.026 178.37ZM311.258 189.235L303.741 191.972C305.165 195.886 305.971 199.166 306.291 201.864L314.235 200.922L322.179 199.981C321.677 195.742 320.498 191.23 318.776 186.499L311.258 189.235ZM314.235 200.922L316.971 208.44L325.428 205.362L322.692 197.844L319.956 190.326L311.499 193.405L314.235 200.922ZM322.692 197.844L316.063 202.322C317.418 204.329 318.897 207.298 320.407 211.446L327.924 208.71L335.442 205.974C333.668 201.1 331.659 196.826 329.322 193.366L322.692 197.844ZM283.474 186.578L290.165 182.193C288.675 179.92 287.184 176.89 285.76 172.976L278.242 175.712L270.724 178.448C272.446 183.179 274.443 187.393 276.783 190.963L283.474 186.578ZM278.242 175.712L285.76 172.976C284.25 168.828 283.474 165.603 283.222 163.194L275.265 164.025L267.309 164.857C267.742 169.009 268.951 173.575 270.724 178.448L278.242 175.712ZM275.265 164.025L272.529 156.508L266.891 158.56L269.627 166.078L272.363 173.595L278.002 171.543L275.265 164.025ZM269.627 166.078L276.318 161.692C274.829 159.42 273.337 156.39 271.913 152.476L264.395 155.212L256.878 157.948C258.6 162.679 260.596 166.893 262.936 170.463L269.627 166.078ZM264.395 155.212L271.913 152.476C270.403 148.328 269.627 145.103 269.375 142.694L261.419 143.525L253.462 144.356C253.896 148.509 255.104 153.074 256.878 157.948L264.395 155.212ZM261.419 143.525L258.683 136.007L241.768 142.164L244.504 149.681L247.24 157.199L264.155 151.042L261.419 143.525ZM244.504 149.681L237.875 154.159C239.23 156.166 240.709 159.136 242.219 163.283L249.736 160.547L257.254 157.811C255.48 152.938 253.471 148.663 251.134 145.204L244.504 149.681ZM249.736 160.547L242.219 163.283C243.643 167.197 244.449 170.477 244.768 173.176L252.713 172.234L260.657 171.292C260.155 167.053 258.976 162.542 257.254 157.811L249.736 160.547ZM252.713 172.234L249.977 164.716L244.338 166.768L247.075 174.286L249.811 181.804L255.449 179.751L252.713 172.234ZM247.075 174.286L240.445 178.764C241.801 180.771 243.279 183.74 244.789 187.888L252.306 185.152L259.824 182.416C258.05 177.542 256.041 173.268 253.704 169.808L247.075 174.286ZM252.306 185.152L244.789 187.888C246.214 191.802 247.019 195.082 247.339 197.78L255.283 196.839L263.227 195.897C262.725 191.658 261.546 187.147 259.824 182.416L252.306 185.152ZM255.283 196.839L258.019 204.356L286.21 194.096L283.474 186.578L280.738 179.061L252.547 189.321L255.283 196.839Z" fill="white" mask="url(#path-3-outside-2_7_185)"/>
<mask id="path-5-outside-3_7_185" maskUnits="userSpaceOnUse" x="342" y="64.5" width="116" height="184" fill="black">
<rect fill="white" x="342" y="64.5" width="116" height="184"/>
<path d="M448 96.5C448.8 99.7 449.2 103.7 449.2 108.5C449.2 113.1 448.8 117.1 448 120.5C448.8 123.7 449.2 127.7 449.2 132.5C449.2 137.1 448.8 141.1 448 144.5C448.8 147.7 449.2 151.7 449.2 156.5C449.2 161.1 448.8 165.1 448 168.5C448.8 171.7 449.2 175.7 449.2 180.5C449.2 185.1 448.8 189.1 448 192.5C448.8 195.7 449.2 199.7 449.2 204.5C449.2 209.1 448.8 213.1 448 216.5C448.8 219.7 449.2 223.7 449.2 228.5C449.2 233.1 448.8 237.1 448 240.5H424C423.2 237.1 422.8 233.1 422.8 228.5C422.8 223.7 423.2 219.7 424 216.5H409C408.2 213.1 407.8 209.1 407.8 204.5C407.8 199.7 408.2 195.7 409 192.5H400C399.2 189.1 398.8 185.1 398.8 180.5C398.8 175.7 399.2 171.7 400 168.5H388C387.2 165.1 386.8 161.1 386.8 156.5C386.8 151.7 387.2 147.7 388 144.5H376C376.8 147.7 377.2 151.7 377.2 156.5C377.2 161.1 376.8 165.1 376 168.5C376.8 171.7 377.2 175.7 377.2 180.5C377.2 185.1 376.8 189.1 376 192.5C376.8 195.7 377.2 199.7 377.2 204.5C377.2 209.1 376.8 213.1 376 216.5C376.8 219.7 377.2 223.7 377.2 228.5C377.2 233.1 376.8 237.1 376 240.5H352C351.2 237.1 350.8 233.1 350.8 228.5C350.8 223.7 351.2 219.7 352 216.5C351.2 213.1 350.8 209.1 350.8 204.5C350.8 199.7 351.2 195.7 352 192.5C351.2 189.1 350.8 185.1 350.8 180.5C350.8 175.7 351.2 171.7 352 168.5C351.2 165.1 350.8 161.1 350.8 156.5C350.8 151.7 351.2 147.7 352 144.5C351.2 141.1 350.8 137.1 350.8 132.5C350.8 127.7 351.2 123.7 352 120.5C351.2 117.1 350.8 113.1 350.8 108.5C350.8 103.7 351.2 99.7 352 96.5C351.2 93.1 350.8 89.1 350.8 84.5C350.8 79.7 351.2 75.7 352 72.5H382C382.8 75.7 383.2 79.7 383.2 84.5C383.2 89.1 382.8 93.1 382 96.5H391C391.8 99.7 392.2 103.7 392.2 108.5C392.2 113.1 391.8 117.1 391 120.5H400C400.8 123.7 401.2 127.7 401.2 132.5C401.2 137.1 400.8 141.1 400 144.5H412C412.8 147.7 413.2 151.7 413.2 156.5C413.2 161.1 412.8 165.1 412 168.5H424C423.2 165.1 422.8 161.1 422.8 156.5C422.8 151.7 423.2 147.7 424 144.5C423.2 141.1 422.8 137.1 422.8 132.5C422.8 127.7 423.2 123.7 424 120.5C423.2 117.1 422.8 113.1 422.8 108.5C422.8 103.7 423.2 99.7 424 96.5C423.2 93.1 422.8 89.1 422.8 84.5C422.8 79.7 423.2 75.7 424 72.5H448C448.8 75.7 449.2 79.7 449.2 84.5C449.2 89.1 448.8 93.1 448 96.5Z"/>
</mask>
<path d="M448 96.5C448.8 99.7 449.2 103.7 449.2 108.5C449.2 113.1 448.8 117.1 448 120.5C448.8 123.7 449.2 127.7 449.2 132.5C449.2 137.1 448.8 141.1 448 144.5C448.8 147.7 449.2 151.7 449.2 156.5C449.2 161.1 448.8 165.1 448 168.5C448.8 171.7 449.2 175.7 449.2 180.5C449.2 185.1 448.8 189.1 448 192.5C448.8 195.7 449.2 199.7 449.2 204.5C449.2 209.1 448.8 213.1 448 216.5C448.8 219.7 449.2 223.7 449.2 228.5C449.2 233.1 448.8 237.1 448 240.5H424C423.2 237.1 422.8 233.1 422.8 228.5C422.8 223.7 423.2 219.7 424 216.5H409C408.2 213.1 407.8 209.1 407.8 204.5C407.8 199.7 408.2 195.7 409 192.5H400C399.2 189.1 398.8 185.1 398.8 180.5C398.8 175.7 399.2 171.7 400 168.5H388C387.2 165.1 386.8 161.1 386.8 156.5C386.8 151.7 387.2 147.7 388 144.5H376C376.8 147.7 377.2 151.7 377.2 156.5C377.2 161.1 376.8 165.1 376 168.5C376.8 171.7 377.2 175.7 377.2 180.5C377.2 185.1 376.8 189.1 376 192.5C376.8 195.7 377.2 199.7 377.2 204.5C377.2 209.1 376.8 213.1 376 216.5C376.8 219.7 377.2 223.7 377.2 228.5C377.2 233.1 376.8 237.1 376 240.5H352C351.2 237.1 350.8 233.1 350.8 228.5C350.8 223.7 351.2 219.7 352 216.5C351.2 213.1 350.8 209.1 350.8 204.5C350.8 199.7 351.2 195.7 352 192.5C351.2 189.1 350.8 185.1 350.8 180.5C350.8 175.7 351.2 171.7 352 168.5C351.2 165.1 350.8 161.1 350.8 156.5C350.8 151.7 351.2 147.7 352 144.5C351.2 141.1 350.8 137.1 350.8 132.5C350.8 127.7 351.2 123.7 352 120.5C351.2 117.1 350.8 113.1 350.8 108.5C350.8 103.7 351.2 99.7 352 96.5C351.2 93.1 350.8 89.1 350.8 84.5C350.8 79.7 351.2 75.7 352 72.5H382C382.8 75.7 383.2 79.7 383.2 84.5C383.2 89.1 382.8 93.1 382 96.5H391C391.8 99.7 392.2 103.7 392.2 108.5C392.2 113.1 391.8 117.1 391 120.5H400C400.8 123.7 401.2 127.7 401.2 132.5C401.2 137.1 400.8 141.1 400 144.5H412C412.8 147.7 413.2 151.7 413.2 156.5C413.2 161.1 412.8 165.1 412 168.5H424C423.2 165.1 422.8 161.1 422.8 156.5C422.8 151.7 423.2 147.7 424 144.5C423.2 141.1 422.8 137.1 422.8 132.5C422.8 127.7 423.2 123.7 424 120.5C423.2 117.1 422.8 113.1 422.8 108.5C422.8 103.7 423.2 99.7 424 96.5C423.2 93.1 422.8 89.1 422.8 84.5C422.8 79.7 423.2 75.7 424 72.5H448C448.8 75.7 449.2 79.7 449.2 84.5C449.2 89.1 448.8 93.1 448 96.5Z" fill="black"/>
<path d="M448 96.5L440.213 94.6677L439.768 96.5572L440.239 98.4403L448 96.5ZM448 120.5L440.213 118.668L439.768 120.557L440.239 122.44L448 120.5ZM448 144.5L440.213 142.668L439.768 144.557L440.239 146.44L448 144.5ZM448 168.5L440.213 166.668L439.768 168.557L440.239 170.44L448 168.5ZM448 192.5L440.213 190.668L439.768 192.557L440.239 194.44L448 192.5ZM448 216.5L440.213 214.668L439.768 216.557L440.239 218.44L448 216.5ZM448 240.5V248.5H454.336L455.787 242.332L448 240.5ZM424 240.5L416.213 242.332L417.664 248.5H424V240.5ZM424 216.5L431.761 218.44L434.246 208.5H424V216.5ZM409 216.5L401.213 218.332L402.664 224.5H409V216.5ZM409 192.5L416.761 194.44L419.246 184.5H409V192.5ZM400 192.5L392.213 194.332L393.664 200.5H400V192.5ZM400 168.5L407.761 170.44L410.246 160.5H400V168.5ZM388 168.5L380.213 170.332L381.664 176.5H388V168.5ZM388 144.5L395.761 146.44L398.246 136.5H388V144.5ZM376 144.5V136.5H365.754L368.239 146.44L376 144.5ZM376 168.5L368.213 166.668L367.768 168.557L368.239 170.44L376 168.5ZM376 192.5L368.213 190.668L367.768 192.557L368.239 194.44L376 192.5ZM376 216.5L368.213 214.668L367.768 216.557L368.239 218.44L376 216.5ZM376 240.5V248.5H382.336L383.787 242.332L376 240.5ZM352 240.5L344.213 242.332L345.664 248.5H352V240.5ZM352 216.5L359.761 218.44L360.232 216.557L359.787 214.668L352 216.5ZM352 192.5L359.761 194.44L360.232 192.557L359.787 190.668L352 192.5ZM352 168.5L359.761 170.44L360.232 168.557L359.787 166.668L352 168.5ZM352 144.5L359.761 146.44L360.232 144.557L359.787 142.668L352 144.5ZM352 120.5L359.761 122.44L360.232 120.557L359.787 118.668L352 120.5ZM352 96.5L359.761 98.4403L360.232 96.5572L359.787 94.6677L352 96.5ZM352 72.5V64.5H345.754L344.239 70.5597L352 72.5ZM382 72.5L389.761 70.5597L388.246 64.5H382V72.5ZM382 96.5L374.213 94.6677L371.899 104.5H382V96.5ZM391 96.5L398.761 94.5597L397.246 88.5H391V96.5ZM391 120.5L383.213 118.668L380.899 128.5H391V120.5ZM400 120.5L407.761 118.56L406.246 112.5H400V120.5ZM400 144.5L392.213 142.668L389.899 152.5H400V144.5ZM412 144.5L419.761 142.56L418.246 136.5H412V144.5ZM412 168.5L404.213 166.668L401.899 176.5H412V168.5ZM424 168.5V176.5H434.101L431.787 166.668L424 168.5ZM424 144.5L431.761 146.44L432.232 144.557L431.787 142.668L424 144.5ZM424 120.5L431.761 122.44L432.232 120.557L431.787 118.668L424 120.5ZM424 96.5L431.761 98.4403L432.232 96.5572L431.787 94.6677L424 96.5ZM424 72.5V64.5H417.754L416.239 70.5597L424 72.5ZM448 72.5L455.761 70.5597L454.246 64.5H448V72.5ZM448 96.5L440.239 98.4403C440.826 100.79 441.2 104.086 441.2 108.5H449.2H457.2C457.2 103.314 456.774 98.6101 455.761 94.5597L448 96.5ZM449.2 108.5H441.2C441.2 112.665 440.835 116.023 440.213 118.668L448 120.5L455.787 122.332C456.765 118.177 457.2 113.535 457.2 108.5H449.2ZM448 120.5L440.239 122.44C440.826 124.79 441.2 128.086 441.2 132.5H449.2H457.2C457.2 127.314 456.774 122.61 455.761 118.56L448 120.5ZM449.2 132.5H441.2C441.2 136.665 440.835 140.023 440.213 142.668L448 144.5L455.787 146.332C456.765 142.177 457.2 137.535 457.2 132.5H449.2ZM448 144.5L440.239 146.44C440.826 148.79 441.2 152.086 441.2 156.5H449.2H457.2C457.2 151.314 456.774 146.61 455.761 142.56L448 144.5ZM449.2 156.5H441.2C441.2 160.665 440.835 164.023 440.213 166.668L448 168.5L455.787 170.332C456.765 166.177 457.2 161.535 457.2 156.5H449.2ZM448 168.5L440.239 170.44C440.826 172.79 441.2 176.086 441.2 180.5H449.2H457.2C457.2 175.314 456.774 170.61 455.761 166.56L448 168.5ZM449.2 180.5H441.2C441.2 184.665 440.835 188.023 440.213 190.668L448 192.5L455.787 194.332C456.765 190.177 457.2 185.535 457.2 180.5H449.2ZM448 192.5L440.239 194.44C440.826 196.79 441.2 200.086 441.2 204.5H449.2H457.2C457.2 199.314 456.774 194.61 455.761 190.56L448 192.5ZM449.2 204.5H441.2C441.2 208.665 440.835 212.023 440.213 214.668L448 216.5L455.787 218.332C456.765 214.177 457.2 209.535 457.2 204.5H449.2ZM448 216.5L440.239 218.44C440.826 220.79 441.2 224.086 441.2 228.5H449.2H457.2C457.2 223.314 456.774 218.61 455.761 214.56L448 216.5ZM449.2 228.5H441.2C441.2 232.665 440.835 236.023 440.213 238.668L448 240.5L455.787 242.332C456.765 238.177 457.2 233.535 457.2 228.5H449.2ZM448 240.5V232.5H424V240.5V248.5H448V240.5ZM424 240.5L431.787 238.668C431.165 236.023 430.8 232.665 430.8 228.5H422.8H414.8C414.8 233.535 415.235 238.177 416.213 242.332L424 240.5ZM422.8 228.5H430.8C430.8 224.086 431.174 220.79 431.761 218.44L424 216.5L416.239 214.56C415.226 218.61 414.8 223.314 414.8 228.5H422.8ZM424 216.5V208.5H409V216.5V224.5H424V216.5ZM409 216.5L416.787 214.668C416.165 212.023 415.8 208.665 415.8 204.5H407.8H399.8C399.8 209.535 400.235 214.177 401.213 218.332L409 216.5ZM407.8 204.5H415.8C415.8 200.086 416.174 196.79 416.761 194.44L409 192.5L401.239 190.56C400.226 194.61 399.8 199.314 399.8 204.5H407.8ZM409 192.5V184.5H400V192.5V200.5H409V192.5ZM400 192.5L407.787 190.668C407.165 188.023 406.8 184.665 406.8 180.5H398.8H390.8C390.8 185.535 391.235 190.177 392.213 194.332L400 192.5ZM398.8 180.5H406.8C406.8 176.086 407.174 172.79 407.761 170.44L400 168.5L392.239 166.56C391.226 170.61 390.8 175.314 390.8 180.5H398.8ZM400 168.5V160.5H388V168.5V176.5H400V168.5ZM388 168.5L395.787 166.668C395.165 164.023 394.8 160.665 394.8 156.5H386.8H378.8C378.8 161.535 379.235 166.177 380.213 170.332L388 168.5ZM386.8 156.5H394.8C394.8 152.086 395.174 148.79 395.761 146.44L388 144.5L380.239 142.56C379.226 146.61 378.8 151.314 378.8 156.5H386.8ZM388 144.5V136.5H376V144.5V152.5H388V144.5ZM376 144.5L368.239 146.44C368.826 148.79 369.2 152.086 369.2 156.5H377.2H385.2C385.2 151.314 384.774 146.61 383.761 142.56L376 144.5ZM377.2 156.5H369.2C369.2 160.665 368.835 164.023 368.213 166.668L376 168.5L383.787 170.332C384.765 166.177 385.2 161.535 385.2 156.5H377.2ZM376 168.5L368.239 170.44C368.826 172.79 369.2 176.086 369.2 180.5H377.2H385.2C385.2 175.314 384.774 170.61 383.761 166.56L376 168.5ZM377.2 180.5H369.2C369.2 184.665 368.835 188.023 368.213 190.668L376 192.5L383.787 194.332C384.765 190.177 385.2 185.535 385.2 180.5H377.2ZM376 192.5L368.239 194.44C368.826 196.79 369.2 200.086 369.2 204.5H377.2H385.2C385.2 199.314 384.774 194.61 383.761 190.56L376 192.5ZM377.2 204.5H369.2C369.2 208.665 368.835 212.023 368.213 214.668L376 216.5L383.787 218.332C384.765 214.177 385.2 209.535 385.2 204.5H377.2ZM376 216.5L368.239 218.44C368.826 220.79 369.2 224.086 369.2 228.5H377.2H385.2C385.2 223.314 384.774 218.61 383.761 214.56L376 216.5ZM377.2 228.5H369.2C369.2 232.665 368.835 236.023 368.213 238.668L376 240.5L383.787 242.332C384.765 238.177 385.2 233.535 385.2 228.5H377.2ZM376 240.5V232.5H352V240.5V248.5H376V240.5ZM352 240.5L359.787 238.668C359.165 236.023 358.8 232.665 358.8 228.5H350.8H342.8C342.8 233.535 343.235 238.177 344.213 242.332L352 240.5ZM350.8 228.5H358.8C358.8 224.086 359.174 220.79 359.761 218.44L352 216.5L344.239 214.56C343.226 218.61 342.8 223.314 342.8 228.5H350.8ZM352 216.5L359.787 214.668C359.165 212.023 358.8 208.665 358.8 204.5H350.8H342.8C342.8 209.535 343.235 214.177 344.213 218.332L352 216.5ZM350.8 204.5H358.8C358.8 200.086 359.174 196.79 359.761 194.44L352 192.5L344.239 190.56C343.226 194.61 342.8 199.314 342.8 204.5H350.8ZM352 192.5L359.787 190.668C359.165 188.023 358.8 184.665 358.8 180.5H350.8H342.8C342.8 185.535 343.235 190.177 344.213 194.332L352 192.5ZM350.8 180.5H358.8C358.8 176.086 359.174 172.79 359.761 170.44L352 168.5L344.239 166.56C343.226 170.61 342.8 175.314 342.8 180.5H350.8ZM352 168.5L359.787 166.668C359.165 164.023 358.8 160.665 358.8 156.5H350.8H342.8C342.8 161.535 343.235 166.177 344.213 170.332L352 168.5ZM350.8 156.5H358.8C358.8 152.086 359.174 148.79 359.761 146.44L352 144.5L344.239 142.56C343.226 146.61 342.8 151.314 342.8 156.5H350.8ZM352 144.5L359.787 142.668C359.165 140.023 358.8 136.665 358.8 132.5H350.8H342.8C342.8 137.535 343.235 142.177 344.213 146.332L352 144.5ZM350.8 132.5H358.8C358.8 128.086 359.174 124.79 359.761 122.44L352 120.5L344.239 118.56C343.226 122.61 342.8 127.314 342.8 132.5H350.8ZM352 120.5L359.787 118.668C359.165 116.023 358.8 112.665 358.8 108.5H350.8H342.8C342.8 113.535 343.235 118.177 344.213 122.332L352 120.5ZM350.8 108.5H358.8C358.8 104.086 359.174 100.79 359.761 98.4403L352 96.5L344.239 94.5597C343.226 98.6101 342.8 103.314 342.8 108.5H350.8ZM352 96.5L359.787 94.6677C359.165 92.0228 358.8 88.6652 358.8 84.5H350.8H342.8C342.8 89.5348 343.235 94.1772 344.213 98.3323L352 96.5ZM350.8 84.5H358.8C358.8 80.0861 359.174 76.7899 359.761 74.4403L352 72.5L344.239 70.5597C343.226 74.6101 342.8 79.3139 342.8 84.5H350.8ZM352 72.5V80.5H382V72.5V64.5H352V72.5ZM382 72.5L374.239 74.4403C374.826 76.7899 375.2 80.0861 375.2 84.5H383.2H391.2C391.2 79.3139 390.774 74.6101 389.761 70.5597L382 72.5ZM383.2 84.5H375.2C375.2 88.6652 374.835 92.0228 374.213 94.6677L382 96.5L389.787 98.3323C390.765 94.1772 391.2 89.5348 391.2 84.5H383.2ZM382 96.5V104.5H391V96.5V88.5H382V96.5ZM391 96.5L383.239 98.4403C383.826 100.79 384.2 104.086 384.2 108.5H392.2H400.2C400.2 103.314 399.774 98.6101 398.761 94.5597L391 96.5ZM392.2 108.5H384.2C384.2 112.665 383.835 116.023 383.213 118.668L391 120.5L398.787 122.332C399.765 118.177 400.2 113.535 400.2 108.5H392.2ZM391 120.5V128.5H400V120.5V112.5H391V120.5ZM400 120.5L392.239 122.44C392.826 124.79 393.2 128.086 393.2 132.5H401.2H409.2C409.2 127.314 408.774 122.61 407.761 118.56L400 120.5ZM401.2 132.5H393.2C393.2 136.665 392.835 140.023 392.213 142.668L400 144.5L407.787 146.332C408.765 142.177 409.2 137.535 409.2 132.5H401.2ZM400 144.5V152.5H412V144.5V136.5H400V144.5ZM412 144.5L404.239 146.44C404.826 148.79 405.2 152.086 405.2 156.5H413.2H421.2C421.2 151.314 420.774 146.61 419.761 142.56L412 144.5ZM413.2 156.5H405.2C405.2 160.665 404.835 164.023 404.213 166.668L412 168.5L419.787 170.332C420.765 166.177 421.2 161.535 421.2 156.5H413.2ZM412 168.5V176.5H424V168.5V160.5H412V168.5ZM424 168.5L431.787 166.668C431.165 164.023 430.8 160.665 430.8 156.5H422.8H414.8C414.8 161.535 415.235 166.177 416.213 170.332L424 168.5ZM422.8 156.5H430.8C430.8 152.086 431.174 148.79 431.761 146.44L424 144.5L416.239 142.56C415.226 146.61 414.8 151.314 414.8 156.5H422.8ZM424 144.5L431.787 142.668C431.165 140.023 430.8 136.665 430.8 132.5H422.8H414.8C414.8 137.535 415.235 142.177 416.213 146.332L424 144.5ZM422.8 132.5H430.8C430.8 128.086 431.174 124.79 431.761 122.44L424 120.5L416.239 118.56C415.226 122.61 414.8 127.314 414.8 132.5H422.8ZM424 120.5L431.787 118.668C431.165 116.023 430.8 112.665 430.8 108.5H422.8H414.8C414.8 113.535 415.235 118.177 416.213 122.332L424 120.5ZM422.8 108.5H430.8C430.8 104.086 431.174 100.79 431.761 98.4403L424 96.5L416.239 94.5597C415.226 98.6101 414.8 103.314 414.8 108.5H422.8ZM424 96.5L431.787 94.6677C431.165 92.0228 430.8 88.6652 430.8 84.5H422.8H414.8C414.8 89.5348 415.235 94.1772 416.213 98.3323L424 96.5ZM422.8 84.5H430.8C430.8 80.0861 431.174 76.7898 431.761 74.4403L424 72.5L416.239 70.5597C415.226 74.6101 414.8 79.3139 414.8 84.5H422.8ZM424 72.5V80.5H448V72.5V64.5H424V72.5ZM448 72.5L440.239 74.4403C440.826 76.7899 441.2 80.0861 441.2 84.5H449.2H457.2C457.2 79.3139 456.774 74.6101 455.761 70.5597L448 72.5ZM449.2 84.5H441.2C441.2 88.6652 440.835 92.0228 440.213 94.6677L448 96.5L455.787 98.3323C456.765 94.1772 457.2 89.5348 457.2 84.5H449.2Z" fill="white" mask="url(#path-5-outside-3_7_185)"/>
<mask id="path-7-outside-4_7_185" maskUnits="userSpaceOnUse" x="448.818" y="73.8012" width="171.936" height="212.578" fill="black">
<rect fill="white" x="448.818" y="73.8012" width="171.936" height="212.578"/>
<path d="M605.644 129.26C604.071 133.582 602.327 137.204 600.413 140.125C600.07 143.406 599.078 147.302 597.436 151.812C595.863 156.135 594.119 159.757 592.204 162.678L580.928 158.574C580.585 161.854 579.593 165.75 577.951 170.261C576.378 174.583 574.634 178.205 572.719 181.126L561.443 177.022C561.1 180.303 560.108 184.198 558.466 188.709C556.893 193.032 555.149 196.654 553.234 199.575L541.958 195.471C541.615 198.751 540.623 202.647 538.982 207.157C537.408 211.48 535.664 215.102 533.75 218.023C533.407 221.304 532.415 225.199 530.773 229.71C529.2 234.033 527.456 237.655 525.541 240.576C525.198 243.857 524.206 247.752 522.565 252.263C520.991 256.585 519.247 260.207 517.333 263.128L494.78 254.92C495.191 251.451 496.183 247.556 497.757 243.233C499.398 238.723 501.142 235.101 502.989 232.367C503.4 228.899 504.392 225.003 505.965 220.681C507.607 216.17 509.351 212.548 511.197 209.815C511.608 206.346 512.6 202.451 514.174 198.128C515.815 193.618 517.559 189.996 519.406 187.262L508.129 183.158C508.54 179.689 509.533 175.794 511.106 171.471C512.748 166.961 514.491 163.339 516.338 160.605L505.061 156.501C505.473 153.032 506.465 149.137 508.038 144.814C509.68 140.304 511.424 136.682 513.27 133.948L501.994 129.844C502.405 126.376 503.397 122.48 504.97 118.157C506.612 113.647 508.356 110.025 510.202 107.292C510.613 103.823 511.605 99.9274 513.179 95.6048C514.82 91.0943 516.564 87.4723 518.411 84.7389L540.963 92.9474C540.62 96.228 539.628 100.124 537.987 104.634C536.413 108.957 534.669 112.579 532.755 115.5C532.412 118.781 531.42 122.676 529.778 127.187C528.205 131.509 526.461 135.131 524.546 138.053L535.823 142.157C535.48 145.438 534.488 149.333 532.846 153.844C531.273 158.166 529.529 161.788 527.614 164.71L550.167 172.918C550.578 169.449 551.57 165.554 553.143 161.231C554.785 156.721 556.529 153.099 558.375 150.365L569.651 154.47C570.063 151.001 571.055 147.105 572.628 142.783C574.27 138.272 576.014 134.65 577.86 131.917C578.271 128.448 579.263 124.553 580.837 120.23C582.478 115.72 584.222 112.098 586.068 109.364L608.621 117.573C608.278 120.853 607.286 124.749 605.644 129.26Z"/>
</mask>
<path d="M605.644 129.26C604.071 133.582 602.327 137.204 600.413 140.125C600.07 143.406 599.078 147.302 597.436 151.812C595.863 156.135 594.119 159.757 592.204 162.678L580.928 158.574C580.585 161.854 579.593 165.75 577.951 170.261C576.378 174.583 574.634 178.205 572.719 181.126L561.443 177.022C561.1 180.303 560.108 184.198 558.466 188.709C556.893 193.032 555.149 196.654 553.234 199.575L541.958 195.471C541.615 198.751 540.623 202.647 538.982 207.157C537.408 211.48 535.664 215.102 533.75 218.023C533.407 221.304 532.415 225.199 530.773 229.71C529.2 234.033 527.456 237.655 525.541 240.576C525.198 243.857 524.206 247.752 522.565 252.263C520.991 256.585 519.247 260.207 517.333 263.128L494.78 254.92C495.191 251.451 496.183 247.556 497.757 243.233C499.398 238.723 501.142 235.101 502.989 232.367C503.4 228.899 504.392 225.003 505.965 220.681C507.607 216.17 509.351 212.548 511.197 209.815C511.608 206.346 512.6 202.451 514.174 198.128C515.815 193.618 517.559 189.996 519.406 187.262L508.129 183.158C508.54 179.689 509.533 175.794 511.106 171.471C512.748 166.961 514.491 163.339 516.338 160.605L505.061 156.501C505.473 153.032 506.465 149.137 508.038 144.814C509.68 140.304 511.424 136.682 513.27 133.948L501.994 129.844C502.405 126.376 503.397 122.48 504.97 118.157C506.612 113.647 508.356 110.025 510.202 107.292C510.613 103.823 511.605 99.9274 513.179 95.6048C514.82 91.0943 516.564 87.4723 518.411 84.7389L540.963 92.9474C540.62 96.228 539.628 100.124 537.987 104.634C536.413 108.957 534.669 112.579 532.755 115.5C532.412 118.781 531.42 122.676 529.778 127.187C528.205 131.509 526.461 135.131 524.546 138.053L535.823 142.157C535.48 145.438 534.488 149.333 532.846 153.844C531.273 158.166 529.529 161.788 527.614 164.71L550.167 172.918C550.578 169.449 551.57 165.554 553.143 161.231C554.785 156.721 556.529 153.099 558.375 150.365L569.651 154.47C570.063 151.001 571.055 147.105 572.628 142.783C574.27 138.272 576.014 134.65 577.86 131.917C578.271 128.448 579.263 124.553 580.837 120.23C582.478 115.72 584.222 112.098 586.068 109.364L608.621 117.573C608.278 120.853 607.286 124.749 605.644 129.26Z" fill="black"/>
<path d="M600.413 140.125L593.722 135.74L592.658 137.364L592.456 139.294L600.413 140.125ZM592.204 162.678L589.468 170.196L595.422 172.363L598.895 167.063L592.204 162.678ZM580.928 158.574L583.664 151.056L574.036 147.552L572.971 157.743L580.928 158.574ZM572.719 181.126L569.983 188.644L575.937 190.811L579.41 185.512L572.719 181.126ZM561.443 177.022L564.179 169.505L554.551 166L553.486 176.191L561.443 177.022ZM553.234 199.575L550.498 207.092L556.452 209.259L559.925 203.96L553.234 199.575ZM541.958 195.471L544.694 187.953L535.066 184.449L534.001 194.639L541.958 195.471ZM533.75 218.023L527.059 213.638L525.995 215.261L525.793 217.192L533.75 218.023ZM525.541 240.576L518.85 236.191L517.786 237.814L517.584 239.745L525.541 240.576ZM517.333 263.128L514.597 270.646L520.551 272.813L524.024 267.514L517.333 263.128ZM494.78 254.92L486.836 253.978L486.09 260.27L492.044 262.438L494.78 254.92ZM502.989 232.367L509.618 236.845L510.705 235.237L510.933 233.309L502.989 232.367ZM511.197 209.815L517.827 214.293L518.913 212.684L519.141 210.756L511.197 209.815ZM519.406 187.262L526.035 191.74L531.77 183.249L522.142 179.745L519.406 187.262ZM508.129 183.158L500.185 182.216L499.439 188.508L505.393 190.675L508.129 183.158ZM516.338 160.605L522.967 165.083L528.702 156.592L519.074 153.088L516.338 160.605ZM505.061 156.501L497.117 155.559L496.371 161.851L502.325 164.019L505.061 156.501ZM513.27 133.948L519.899 138.426L525.634 129.935L516.006 126.431L513.27 133.948ZM501.994 129.844L494.049 128.903L493.303 135.195L499.257 137.362L501.994 129.844ZM510.202 107.292L516.832 111.769L517.918 110.161L518.146 108.233L510.202 107.292ZM518.411 84.7389L521.147 77.2214L515.277 75.0851L511.781 80.2612L518.411 84.7389ZM540.963 92.9474L548.92 93.7786L549.569 87.5662L543.699 85.4299L540.963 92.9474ZM532.755 115.5L526.064 111.115L525 112.738L524.798 114.669L532.755 115.5ZM524.546 138.053L517.855 133.667L512.318 142.116L521.81 145.57L524.546 138.053ZM535.823 142.157L543.779 142.988L544.428 136.776L538.559 134.639L535.823 142.157ZM527.614 164.71L520.923 160.324L515.386 168.772L524.878 172.227L527.614 164.71ZM550.167 172.918L547.43 180.436L556.922 183.89L558.111 173.86L550.167 172.918ZM558.375 150.365L561.111 142.848L555.242 140.712L551.746 145.888L558.375 150.365ZM569.651 154.47L566.915 161.987L576.407 165.442L577.596 155.411L569.651 154.47ZM577.86 131.917L584.489 136.395L585.576 134.786L585.804 132.859L577.86 131.917ZM586.068 109.364L588.805 101.847L582.935 99.7105L579.439 104.887L586.068 109.364ZM608.621 117.573L616.578 118.404L617.227 112.192L611.357 110.055L608.621 117.573ZM605.644 129.26L598.127 126.523C596.702 130.437 595.211 133.468 593.722 135.74L600.413 140.125L607.104 144.511C609.443 140.941 611.44 136.727 613.162 131.996L605.644 129.26ZM600.413 140.125L592.456 139.294C592.204 141.703 591.428 144.928 589.918 149.076L597.436 151.812L604.953 154.548C606.727 149.675 607.935 145.109 608.369 140.957L600.413 140.125ZM597.436 151.812L589.918 149.076C588.494 152.99 587.002 156.02 585.513 158.293L592.204 162.678L598.895 167.063C601.235 163.493 603.231 159.28 604.953 154.548L597.436 151.812ZM592.204 162.678L594.94 155.161L583.664 151.056L580.928 158.574L578.192 166.091L589.468 170.196L592.204 162.678ZM580.928 158.574L572.971 157.743C572.719 160.151 571.943 163.377 570.434 167.524L577.951 170.261L585.469 172.997C587.242 168.123 588.451 163.558 588.884 159.405L580.928 158.574ZM577.951 170.261L570.434 167.524C569.009 171.438 567.518 174.469 566.028 176.741L572.719 181.126L579.41 185.512C581.75 181.942 583.747 177.728 585.469 172.997L577.951 170.261ZM572.719 181.126L575.455 173.609L564.179 169.505L561.443 177.022L558.707 184.54L569.983 188.644L572.719 181.126ZM561.443 177.022L553.486 176.191C553.235 178.6 552.458 181.825 550.949 185.973L558.466 188.709L565.984 191.445C567.758 186.572 568.966 182.006 569.4 177.853L561.443 177.022ZM558.466 188.709L550.949 185.973C549.524 189.887 548.033 192.917 546.543 195.19L553.234 199.575L559.925 203.96C562.265 200.39 564.262 196.176 565.984 191.445L558.466 188.709ZM553.234 199.575L555.971 192.057L544.694 187.953L541.958 195.471L539.222 202.988L550.498 207.092L553.234 199.575ZM541.958 195.471L534.001 194.639C533.75 197.048 532.974 200.274 531.464 204.421L538.982 207.157L546.499 209.894C548.273 205.02 549.481 200.454 549.915 196.302L541.958 195.471ZM538.982 207.157L531.464 204.421C530.039 208.335 528.548 211.365 527.059 213.638L533.75 218.023L540.441 222.408C542.781 218.838 544.777 214.625 546.499 209.894L538.982 207.157ZM533.75 218.023L525.793 217.192C525.541 219.601 524.765 222.826 523.256 226.974L530.773 229.71L538.291 232.446C540.064 227.573 541.273 223.007 541.706 218.854L533.75 218.023ZM530.773 229.71L523.256 226.974C521.831 230.888 520.34 233.918 518.85 236.191L525.541 240.576L532.232 244.961C534.572 241.391 536.569 237.177 538.291 232.446L530.773 229.71ZM525.541 240.576L517.584 239.745C517.333 242.153 516.557 245.379 515.047 249.526L522.565 252.263L530.082 254.999C531.856 250.125 533.064 245.56 533.498 241.407L525.541 240.576ZM522.565 252.263L515.047 249.526C513.622 253.44 512.131 256.471 510.642 258.743L517.333 263.128L524.024 267.514C526.364 263.944 528.36 259.73 530.082 254.999L522.565 252.263ZM517.333 263.128L520.069 255.611L497.516 247.402L494.78 254.92L492.044 262.438L514.597 270.646L517.333 263.128ZM494.78 254.92L502.724 255.862C503.044 253.163 503.85 249.883 505.274 245.969L497.757 243.233L490.239 240.497C488.517 245.228 487.338 249.739 486.836 253.978L494.78 254.92ZM497.757 243.233L505.274 245.969C506.784 241.822 508.262 238.852 509.618 236.845L502.989 232.367L496.359 227.89C494.022 231.349 492.013 235.624 490.239 240.497L497.757 243.233ZM502.989 232.367L510.933 233.309C511.253 230.611 512.058 227.331 513.483 223.417L505.965 220.681L498.448 217.944C496.726 222.676 495.547 227.187 495.044 231.426L502.989 232.367ZM505.965 220.681L513.483 223.417C514.992 219.269 516.471 216.299 517.827 214.293L511.197 209.815L504.568 205.337C502.231 208.797 500.221 213.071 498.448 217.944L505.965 220.681ZM511.197 209.815L519.141 210.756C519.461 208.058 520.267 204.778 521.691 200.864L514.174 198.128L506.656 195.392C504.934 200.123 503.755 204.634 503.253 208.873L511.197 209.815ZM514.174 198.128L521.691 200.864C523.201 196.717 524.679 193.747 526.035 191.74L519.406 187.262L512.776 182.784C510.439 186.244 508.43 190.519 506.656 195.392L514.174 198.128ZM519.406 187.262L522.142 179.745L510.865 175.64L508.129 183.158L505.393 190.675L516.669 194.78L519.406 187.262ZM508.129 183.158L516.074 184.1C516.393 181.401 517.199 178.121 518.623 174.207L511.106 171.471L503.588 168.735C501.866 173.466 500.687 177.977 500.185 182.216L508.129 183.158ZM511.106 171.471L518.623 174.207C520.133 170.06 521.612 167.09 522.967 165.083L516.338 160.605L509.708 156.128C507.371 159.587 505.362 163.862 503.588 168.735L511.106 171.471ZM516.338 160.605L519.074 153.088L507.798 148.983L505.061 156.501L502.325 164.019L513.602 168.123L516.338 160.605ZM505.061 156.501L513.006 157.443C513.326 154.744 514.131 151.464 515.556 147.55L508.038 144.814L500.52 142.078C498.798 146.809 497.619 151.32 497.117 155.559L505.061 156.501ZM508.038 144.814L515.556 147.55C517.065 143.403 518.544 140.433 519.899 138.426L513.27 133.948L506.64 129.471C504.304 132.93 502.294 137.205 500.52 142.078L508.038 144.814ZM513.27 133.948L516.006 126.431L504.73 122.327L501.994 129.844L499.257 137.362L510.534 141.466L513.27 133.948ZM501.994 129.844L509.938 130.786C510.258 128.088 511.063 124.808 512.488 120.894L504.97 118.157L497.453 115.421C495.731 120.152 494.552 124.664 494.049 128.903L501.994 129.844ZM504.97 118.157L512.488 120.894C513.997 116.746 515.476 113.776 516.832 111.769L510.202 107.292L503.573 102.814C501.236 106.274 499.226 110.548 497.453 115.421L504.97 118.157ZM510.202 107.292L518.146 108.233C518.466 105.535 519.272 102.255 520.696 98.341L513.179 95.6048L505.661 92.8686C503.939 97.5998 502.76 102.111 502.258 106.35L510.202 107.292ZM513.179 95.6048L520.696 98.341C522.206 94.1933 523.684 91.2236 525.04 89.2167L518.411 84.7389L511.781 80.2612C509.444 83.721 507.435 87.9953 505.661 92.8686L513.179 95.6048ZM518.411 84.7389L515.674 92.2565L538.227 100.465L540.963 92.9474L543.699 85.4299L521.147 77.2214L518.411 84.7389ZM540.963 92.9474L533.006 92.1162C532.755 94.525 531.979 97.7503 530.469 101.898L537.987 104.634L545.504 107.37C547.278 102.497 548.486 97.9311 548.92 93.7786L540.963 92.9474ZM537.987 104.634L530.469 101.898C529.044 105.812 527.553 108.842 526.064 111.115L532.755 115.5L539.446 119.885C541.786 116.315 543.782 112.101 545.504 107.37L537.987 104.634ZM532.755 115.5L524.798 114.669C524.546 117.078 523.77 120.303 522.261 124.451L529.778 127.187L537.296 129.923C539.069 125.05 540.278 120.484 540.711 116.331L532.755 115.5ZM529.778 127.187L522.261 124.451C520.836 128.365 519.345 131.395 517.855 133.667L524.546 138.053L531.237 142.438C533.577 138.868 535.574 134.654 537.296 129.923L529.778 127.187ZM524.546 138.053L521.81 145.57L533.086 149.674L535.823 142.157L538.559 134.639L527.282 130.535L524.546 138.053ZM535.823 142.157L527.866 141.326C527.614 143.734 526.838 146.96 525.328 151.107L532.846 153.844L540.363 156.58C542.137 151.706 543.345 147.141 543.779 142.988L535.823 142.157ZM532.846 153.844L525.328 151.107C523.904 155.021 522.412 158.052 520.923 160.324L527.614 164.71L534.305 169.095C536.645 165.525 538.641 161.311 540.363 156.58L532.846 153.844ZM527.614 164.71L524.878 172.227L547.43 180.436L550.167 172.918L552.903 165.4L530.35 157.192L527.614 164.71ZM550.167 172.918L558.111 173.86C558.431 171.161 559.236 167.881 560.661 163.967L553.143 161.231L545.626 158.495C543.904 163.226 542.725 167.737 542.222 171.976L550.167 172.918ZM553.143 161.231L560.661 163.967C562.17 159.82 563.649 156.85 565.005 154.843L558.375 150.365L551.746 145.888C549.409 149.347 547.399 153.622 545.626 158.495L553.143 161.231ZM558.375 150.365L555.639 157.883L566.915 161.987L569.651 154.47L572.388 146.952L561.111 142.848L558.375 150.365ZM569.651 154.47L577.596 155.411C577.916 152.713 578.721 149.433 580.146 145.519L572.628 142.783L565.111 140.047C563.389 144.778 562.209 149.289 561.707 153.528L569.651 154.47ZM572.628 142.783L580.146 145.519C581.655 141.371 583.134 138.402 584.489 136.395L577.86 131.917L571.23 127.439C568.894 130.899 566.884 135.173 565.111 140.047L572.628 142.783ZM577.86 131.917L585.804 132.859C586.124 130.16 586.929 126.88 588.354 122.966L580.837 120.23L573.319 117.494C571.597 122.225 570.418 126.736 569.916 130.975L577.86 131.917ZM580.837 120.23L588.354 122.966C589.864 118.819 591.342 115.849 592.698 113.842L586.068 109.364L579.439 104.887C577.102 108.346 575.093 112.621 573.319 117.494L580.837 120.23ZM586.068 109.364L583.332 116.882L605.885 125.09L608.621 117.573L611.357 110.055L588.805 101.847L586.068 109.364ZM608.621 117.573L600.664 116.742C600.413 119.15 599.637 122.376 598.127 126.523L605.644 129.26L613.162 131.996C614.936 127.122 616.144 122.557 616.578 118.404L608.621 117.573Z" fill="white" mask="url(#path-7-outside-4_7_185)"/>
<mask id="path-9-outside-5_7_185" maskUnits="userSpaceOnUse" x="549.808" y="140.599" width="207.134" height="215.516" fill="black">
<rect fill="white" x="549.808" y="140.599" width="207.134" height="215.516"/>
<path d="M660.211 316.752C657.254 320.276 654.376 323.083 651.578 325.174C650.134 328.139 647.869 331.461 644.784 335.138C641.827 338.661 638.95 341.468 636.151 343.559L617.766 328.132C619.339 325.013 621.604 321.692 624.56 318.168C627.646 314.491 630.523 311.684 633.193 309.747C634.766 306.628 637.03 303.307 639.987 299.783C643.073 296.106 645.95 293.299 648.62 291.362L611.85 260.508C610.406 263.473 608.141 266.795 605.056 270.472C602.099 273.996 599.221 276.803 596.423 278.893C594.979 281.859 592.714 285.18 589.629 288.857C586.672 292.381 583.794 295.188 580.996 297.278L562.611 281.851C564.184 278.732 566.448 275.411 569.405 271.887C572.491 268.21 575.368 265.403 578.038 263.466C579.611 260.347 581.875 257.026 584.832 253.502C587.917 249.825 590.795 247.018 593.465 245.081L600.359 250.866C601.932 247.747 604.197 244.426 607.153 240.902C610.239 237.225 613.116 234.418 615.786 232.481C617.359 229.362 619.623 226.041 622.58 222.517C625.666 218.84 628.543 216.033 631.213 214.096L635.809 217.953C637.382 214.834 639.647 211.513 642.603 207.989C645.689 204.312 648.566 201.505 651.236 199.568L658.131 205.353C659.703 202.234 661.968 198.913 664.925 195.389C668.01 191.712 670.888 188.905 673.557 186.968L678.154 190.824C679.726 187.706 681.991 184.384 684.948 180.86C688.033 177.183 690.911 174.376 693.581 172.439L721.158 195.58C719.714 198.545 717.449 201.866 714.364 205.543C711.407 209.067 708.53 211.874 705.731 213.965L710.328 217.821C708.884 220.787 706.619 224.108 703.533 227.785C700.577 231.309 697.699 234.116 694.901 236.206L701.795 241.992C700.351 244.957 698.086 248.278 695.001 251.955C692.044 255.479 689.167 258.286 686.368 260.377L690.964 264.233C689.52 267.199 687.256 270.52 684.17 274.197C681.213 277.721 678.336 280.528 675.538 282.618C674.093 285.584 671.829 288.905 668.743 292.582C665.787 296.106 662.909 298.913 660.111 301.003L667.005 306.789C665.561 309.754 663.296 313.075 660.211 316.752ZM657.152 267.192C658.725 264.073 660.99 260.751 663.947 257.228C667.032 253.551 669.91 250.744 672.579 248.806L667.983 244.95C669.556 241.831 671.821 238.51 674.777 234.986C677.863 231.309 680.74 228.502 683.41 226.565L669.621 214.994C668.177 217.96 665.912 221.281 662.827 224.958C659.87 228.482 656.993 231.289 654.194 233.38L649.598 229.523C648.154 232.488 645.889 235.81 642.804 239.487C639.847 243.011 636.969 245.818 634.171 247.908L657.152 267.192Z"/>
</mask>
<path d="M660.211 316.752C657.254 320.276 654.376 323.083 651.578 325.174C650.134 328.139 647.869 331.461 644.784 335.138C641.827 338.661 638.95 341.468 636.151 343.559L617.766 328.132C619.339 325.013 621.604 321.692 624.56 318.168C627.646 314.491 630.523 311.684 633.193 309.747C634.766 306.628 637.03 303.307 639.987 299.783C643.073 296.106 645.95 293.299 648.62 291.362L611.85 260.508C610.406 263.473 608.141 266.795 605.056 270.472C602.099 273.996 599.221 276.803 596.423 278.893C594.979 281.859 592.714 285.18 589.629 288.857C586.672 292.381 583.794 295.188 580.996 297.278L562.611 281.851C564.184 278.732 566.448 275.411 569.405 271.887C572.491 268.21 575.368 265.403 578.038 263.466C579.611 260.347 581.875 257.026 584.832 253.502C587.917 249.825 590.795 247.018 593.465 245.081L600.359 250.866C601.932 247.747 604.197 244.426 607.153 240.902C610.239 237.225 613.116 234.418 615.786 232.481C617.359 229.362 619.623 226.041 622.58 222.517C625.666 218.84 628.543 216.033 631.213 214.096L635.809 217.953C637.382 214.834 639.647 211.513 642.603 207.989C645.689 204.312 648.566 201.505 651.236 199.568L658.131 205.353C659.703 202.234 661.968 198.913 664.925 195.389C668.01 191.712 670.888 188.905 673.557 186.968L678.154 190.824C679.726 187.706 681.991 184.384 684.948 180.86C688.033 177.183 690.911 174.376 693.581 172.439L721.158 195.58C719.714 198.545 717.449 201.866 714.364 205.543C711.407 209.067 708.53 211.874 705.731 213.965L710.328 217.821C708.884 220.787 706.619 224.108 703.533 227.785C700.577 231.309 697.699 234.116 694.901 236.206L701.795 241.992C700.351 244.957 698.086 248.278 695.001 251.955C692.044 255.479 689.167 258.286 686.368 260.377L690.964 264.233C689.52 267.199 687.256 270.52 684.17 274.197C681.213 277.721 678.336 280.528 675.538 282.618C674.093 285.584 671.829 288.905 668.743 292.582C665.787 296.106 662.909 298.913 660.111 301.003L667.005 306.789C665.561 309.754 663.296 313.075 660.211 316.752ZM657.152 267.192C658.725 264.073 660.99 260.751 663.947 257.228C667.032 253.551 669.91 250.744 672.579 248.806L667.983 244.95C669.556 241.831 671.821 238.51 674.777 234.986C677.863 231.309 680.74 228.502 683.41 226.565L669.621 214.994C668.177 217.96 665.912 221.281 662.827 224.958C659.87 228.482 656.993 231.289 654.194 233.38L649.598 229.523C648.154 232.488 645.889 235.81 642.804 239.487C639.847 243.011 636.969 245.818 634.171 247.908L657.152 267.192Z" fill="black"/>
<path d="M651.578 325.174L646.791 318.764L645.235 319.926L644.386 321.671L651.578 325.174ZM636.151 343.559L631.009 349.687L635.863 353.76L640.939 349.968L636.151 343.559ZM617.766 328.132L610.623 324.53L607.77 330.187L612.624 334.26L617.766 328.132ZM633.193 309.747L637.891 316.222L639.462 315.082L640.336 313.349L633.193 309.747ZM648.62 291.362L653.318 297.837L661.611 291.819L653.762 285.233L648.62 291.362ZM611.85 260.508L616.992 254.38L609.143 247.793L604.657 257.005L611.85 260.508ZM596.423 278.893L591.635 272.484L590.08 273.645L589.23 275.391L596.423 278.893ZM580.996 297.278L575.854 303.406L580.707 307.479L585.784 303.687L580.996 297.278ZM562.611 281.851L555.468 278.249L552.615 283.907L557.469 287.979L562.611 281.851ZM578.038 263.466L582.736 269.941L584.307 268.801L585.181 267.068L578.038 263.466ZM593.465 245.081L598.607 238.953L593.822 234.938L588.767 238.606L593.465 245.081ZM600.359 250.866L595.217 256.994L602.955 263.487L607.502 254.468L600.359 250.866ZM615.786 232.481L620.484 238.956L622.055 237.816L622.929 236.083L615.786 232.481ZM631.213 214.096L636.355 207.968L631.57 203.953L626.515 207.621L631.213 214.096ZM635.809 217.953L630.667 224.081L638.405 230.574L642.953 221.555L635.809 217.953ZM651.236 199.568L656.378 193.439L651.594 189.424L646.538 193.092L651.236 199.568ZM658.131 205.353L652.988 211.481L660.726 217.974L665.274 208.955L658.131 205.353ZM673.557 186.968L678.7 180.839L673.915 176.824L668.859 180.492L673.557 186.968ZM678.154 190.824L673.011 196.953L680.749 203.445L685.297 194.426L678.154 190.824ZM693.581 172.439L698.723 166.311L693.938 162.296L688.882 165.964L693.581 172.439ZM721.158 195.58L728.351 199.082L731.085 193.466L726.301 189.451L721.158 195.58ZM705.731 213.965L700.944 207.555L692.851 213.6L700.589 220.093L705.731 213.965ZM710.328 217.821L717.52 221.324L720.255 215.708L715.47 211.693L710.328 217.821ZM694.901 236.206L690.113 229.797L682.021 235.842L689.758 242.335L694.901 236.206ZM701.795 241.992L708.988 245.494L711.722 239.878L706.937 235.863L701.795 241.992ZM686.368 260.377L681.581 253.967L673.488 260.012L681.226 266.505L686.368 260.377ZM690.964 264.233L698.157 267.736L700.892 262.12L696.107 258.105L690.964 264.233ZM675.538 282.618L670.75 276.209L669.195 277.371L668.345 279.116L675.538 282.618ZM660.111 301.003L655.323 294.594L647.231 300.639L654.968 307.132L660.111 301.003ZM667.005 306.789L674.198 310.291L676.932 304.675L672.147 300.66L667.005 306.789ZM657.152 267.192L652.01 273.32L659.748 279.813L664.296 270.793L657.152 267.192ZM672.579 248.806L677.278 255.282L685.571 249.264L677.722 242.678L672.579 248.806ZM667.983 244.95L660.84 241.348L657.987 247.005L662.841 251.078L667.983 244.95ZM683.41 226.565L688.108 233.04L696.401 227.022L688.552 220.436L683.41 226.565ZM669.621 214.994L674.764 208.866L666.914 202.28L662.429 211.492L669.621 214.994ZM654.194 233.38L649.052 239.508L653.906 243.581L658.982 239.789L654.194 233.38ZM649.598 229.523L654.74 223.394L646.891 216.808L642.406 226.02L649.598 229.523ZM634.171 247.908L629.384 241.499L621.291 247.544L629.029 254.036L634.171 247.908ZM660.211 316.752L654.083 311.61C651.405 314.801 648.967 317.138 646.791 318.764L651.578 325.174L656.366 331.583C659.786 329.028 663.103 325.752 666.339 321.895L660.211 316.752ZM651.578 325.174L644.386 321.671C643.325 323.849 641.493 326.614 638.656 329.995L644.784 335.138L650.912 340.28C654.246 336.307 656.943 332.43 658.771 328.676L651.578 325.174ZM644.784 335.138L638.656 329.995C635.978 333.186 633.54 335.523 631.364 337.149L636.151 343.559L640.939 349.968C644.359 347.413 647.676 344.137 650.912 340.28L644.784 335.138ZM636.151 343.559L641.294 337.43L622.908 322.003L617.766 328.132L612.624 334.26L631.009 349.687L636.151 343.559ZM617.766 328.132L624.909 331.734C626.133 329.308 628.011 326.501 630.689 323.31L624.56 318.168L618.432 313.026C615.196 316.882 612.545 320.718 610.623 324.53L617.766 328.132ZM624.56 318.168L630.689 323.31C633.526 319.929 635.931 317.644 637.891 316.222L633.193 309.747L628.495 303.272C625.116 305.724 621.766 309.053 618.432 313.026L624.56 318.168ZM633.193 309.747L640.336 313.349C641.56 310.923 643.438 308.116 646.116 304.925L639.987 299.783L633.859 294.641C630.623 298.497 627.972 302.333 626.05 306.145L633.193 309.747ZM639.987 299.783L646.116 304.925C648.953 301.544 651.358 299.259 653.318 297.837L648.62 291.362L643.922 284.887C640.543 287.338 637.193 290.668 633.859 294.641L639.987 299.783ZM648.62 291.362L653.762 285.233L616.992 254.38L611.85 260.508L606.708 266.636L643.478 297.49L648.62 291.362ZM611.85 260.508L604.657 257.005C603.597 259.183 601.764 261.948 598.927 265.329L605.056 270.472L611.184 275.614C614.518 271.641 617.215 267.764 619.042 264.01L611.85 260.508ZM605.056 270.472L598.927 265.329C596.25 268.52 593.812 270.858 591.635 272.484L596.423 278.893L601.211 285.302C604.63 282.748 607.948 279.471 611.184 275.614L605.056 270.472ZM596.423 278.893L589.23 275.391C588.17 277.568 586.338 280.333 583.5 283.715L589.629 288.857L595.757 293.999C599.091 290.026 601.788 286.149 603.616 282.395L596.423 278.893ZM589.629 288.857L583.5 283.715C580.823 286.905 578.385 289.243 576.208 290.869L580.996 297.278L585.784 303.687C589.204 301.133 592.521 297.856 595.757 293.999L589.629 288.857ZM580.996 297.278L586.138 291.15L567.753 275.723L562.611 281.851L557.469 287.979L575.854 303.406L580.996 297.278ZM562.611 281.851L569.754 285.453C570.978 283.027 572.856 280.22 575.534 277.03L569.405 271.887L563.277 266.745C560.041 270.602 557.39 274.438 555.468 278.249L562.611 281.851ZM569.405 271.887L575.534 277.03C578.371 273.648 580.776 271.363 582.736 269.941L578.038 263.466L573.34 256.991C569.96 259.443 566.61 262.772 563.277 266.745L569.405 271.887ZM578.038 263.466L585.181 267.068C586.404 264.642 588.283 261.835 590.96 258.644L584.832 253.502L578.704 248.36C575.467 252.217 572.817 256.053 570.895 259.864L578.038 263.466ZM584.832 253.502L590.96 258.644C593.798 255.263 596.203 252.978 598.163 251.556L593.465 245.081L588.767 238.606C585.387 241.058 582.037 244.387 578.704 248.36L584.832 253.502ZM593.465 245.081L588.322 251.209L595.217 256.994L600.359 250.866L605.501 244.738L598.607 238.953L593.465 245.081ZM600.359 250.866L607.502 254.468C608.726 252.042 610.604 249.235 613.282 246.044L607.153 240.902L601.025 235.76C597.789 239.617 595.138 243.453 593.216 247.264L600.359 250.866ZM607.153 240.902L613.282 246.044C616.119 242.663 618.524 240.378 620.484 238.956L615.786 232.481L611.088 226.006C607.709 228.458 604.359 231.787 601.025 235.76L607.153 240.902ZM615.786 232.481L622.929 236.083C624.153 233.657 626.031 230.85 628.709 227.659L622.58 222.517L616.452 217.375C613.216 221.232 610.565 225.068 608.643 228.879L615.786 232.481ZM622.58 222.517L628.709 227.659C631.546 224.278 633.951 221.993 635.911 220.571L631.213 214.096L626.515 207.621C623.136 210.073 619.786 213.402 616.452 217.375L622.58 222.517ZM631.213 214.096L626.071 220.224L630.667 224.081L635.809 217.953L640.952 211.824L636.355 207.968L631.213 214.096ZM635.809 217.953L642.953 221.555C644.176 219.129 646.054 216.322 648.732 213.131L642.603 207.989L636.475 202.846C633.239 206.703 630.588 210.539 628.666 214.351L635.809 217.953ZM642.603 207.989L648.732 213.131C651.569 209.75 653.974 207.465 655.934 206.043L651.236 199.568L646.538 193.092C643.159 195.544 639.809 198.874 636.475 202.846L642.603 207.989ZM651.236 199.568L646.094 205.696L652.988 211.481L658.131 205.353L663.273 199.224L656.378 193.439L651.236 199.568ZM658.131 205.353L665.274 208.955C666.497 206.529 668.376 203.722 671.053 200.531L664.925 195.389L658.796 190.246C655.56 194.103 652.909 197.939 650.987 201.751L658.131 205.353ZM664.925 195.389L671.053 200.531C673.89 197.15 676.295 194.865 678.256 193.443L673.557 186.968L668.859 180.492C665.48 182.944 662.13 186.274 658.796 190.246L664.925 195.389ZM673.557 186.968L668.415 193.096L673.011 196.953L678.154 190.824L683.296 184.696L678.7 180.839L673.557 186.968ZM678.154 190.824L685.297 194.426C686.52 192 688.399 189.193 691.076 186.003L684.948 180.86L678.82 175.718C675.583 179.575 672.932 183.411 671.011 187.222L678.154 190.824ZM684.948 180.86L691.076 186.003C693.913 182.622 696.319 180.337 698.279 178.914L693.581 172.439L688.882 165.964C685.503 168.416 682.153 171.745 678.82 175.718L684.948 180.86ZM693.581 172.439L688.438 178.568L716.016 201.708L721.158 195.58L726.301 189.451L698.723 166.311L693.581 172.439ZM721.158 195.58L713.966 192.077C712.905 194.255 711.073 197.02 708.236 200.401L714.364 205.543L720.492 210.686C723.826 206.713 726.523 202.836 728.351 199.082L721.158 195.58ZM714.364 205.543L708.236 200.401C705.558 203.592 703.121 205.929 700.944 207.555L705.731 213.965L710.519 220.374C713.939 217.819 717.256 214.543 720.492 210.686L714.364 205.543ZM705.731 213.965L700.589 220.093L705.185 223.95L710.328 217.821L715.47 211.693L710.874 207.836L705.731 213.965ZM710.328 217.821L703.135 214.319C702.075 216.496 700.242 219.262 697.405 222.643L703.533 227.785L709.662 232.928C712.995 228.955 715.692 225.078 717.52 221.324L710.328 217.821ZM703.533 227.785L697.405 222.643C694.728 225.834 692.29 228.171 690.113 229.797L694.901 236.206L699.688 242.616C703.108 240.061 706.425 236.784 709.662 232.928L703.533 227.785ZM694.901 236.206L689.758 242.335L696.653 248.12L701.795 241.992L706.937 235.863L700.043 230.078L694.901 236.206ZM701.795 241.992L694.603 238.489C693.542 240.667 691.71 243.432 688.873 246.813L695.001 251.955L701.129 257.098C704.463 253.125 707.16 249.248 708.988 245.494L701.795 241.992ZM695.001 251.955L688.873 246.813C686.195 250.004 683.757 252.341 681.581 253.967L686.368 260.377L691.156 266.786C694.576 264.231 697.893 260.955 701.129 257.098L695.001 251.955ZM686.368 260.377L681.226 266.505L685.822 270.362L690.964 264.233L696.107 258.105L691.511 254.248L686.368 260.377ZM690.964 264.233L683.772 260.731C682.712 262.908 680.879 265.674 678.042 269.055L684.17 274.197L690.299 279.34C693.632 275.367 696.329 271.489 698.157 267.736L690.964 264.233ZM684.17 274.197L678.042 269.055C675.365 272.246 672.927 274.583 670.75 276.209L675.538 282.618L680.325 289.028C683.745 286.473 687.062 283.196 690.299 279.34L684.17 274.197ZM675.538 282.618L668.345 279.116C667.285 281.293 665.452 284.059 662.615 287.44L668.743 292.582L674.872 297.725C678.205 293.752 680.902 289.875 682.73 286.121L675.538 282.618ZM668.743 292.582L662.615 287.44C659.938 290.631 657.5 292.968 655.323 294.594L660.111 301.003L664.898 307.413C668.318 304.858 671.635 301.581 674.872 297.725L668.743 292.582ZM660.111 301.003L654.968 307.132L661.863 312.917L667.005 306.789L672.147 300.66L665.253 294.875L660.111 301.003ZM667.005 306.789L659.812 303.286C658.752 305.464 656.92 308.229 654.083 311.61L660.211 316.752L666.339 321.895C669.673 317.922 672.37 314.045 674.198 310.291L667.005 306.789ZM657.152 267.192L664.296 270.793C665.519 268.367 667.398 265.561 670.075 262.37L663.947 257.228L657.818 252.085C654.582 255.942 651.931 259.778 650.009 263.59L657.152 267.192ZM663.947 257.228L670.075 262.37C672.912 258.989 675.317 256.704 677.278 255.282L672.579 248.806L667.881 242.331C664.502 244.783 661.152 248.113 657.818 252.085L663.947 257.228ZM672.579 248.806L677.722 242.678L673.125 238.821L667.983 244.95L662.841 251.078L667.437 254.935L672.579 248.806ZM667.983 244.95L675.126 248.552C676.35 246.126 678.228 243.319 680.906 240.128L674.777 234.986L668.649 229.844C665.413 233.7 662.762 237.536 660.84 241.348L667.983 244.95ZM674.777 234.986L680.906 240.128C683.743 236.747 686.148 234.462 688.108 233.04L683.41 226.565L678.712 220.09C675.333 222.541 671.983 225.871 668.649 229.844L674.777 234.986ZM683.41 226.565L688.552 220.436L674.764 208.866L669.621 214.994L664.479 221.123L678.268 232.693L683.41 226.565ZM669.621 214.994L662.429 211.492C661.368 213.67 659.536 216.435 656.699 219.816L662.827 224.958L668.955 230.101C672.289 226.128 674.986 222.251 676.814 218.497L669.621 214.994ZM662.827 224.958L656.699 219.816C654.021 223.007 651.584 225.344 649.407 226.97L654.194 233.38L658.982 239.789C662.402 237.234 665.719 233.958 668.955 230.101L662.827 224.958ZM654.194 233.38L659.337 227.251L654.74 223.394L649.598 229.523L644.456 235.651L649.052 239.508L654.194 233.38ZM649.598 229.523L642.406 226.02C641.345 228.198 639.513 230.963 636.676 234.344L642.804 239.487L648.932 244.629C652.266 240.656 654.963 236.779 656.791 233.025L649.598 229.523ZM642.804 239.487L636.676 234.344C633.998 237.535 631.56 239.873 629.384 241.499L634.171 247.908L638.959 254.317C642.379 251.763 645.696 248.486 648.932 244.629L642.804 239.487ZM634.171 247.908L629.029 254.036L652.01 273.32L657.152 267.192L662.295 261.063L639.313 241.78L634.171 247.908Z" fill="white" mask="url(#path-9-outside-5_7_185)"/>
</g>
<defs>
<filter id="filter0_d_7_185" x="46.1672" y="64.5" width="708.918" height="313.903" filterUnits="userSpaceOnUse" color-interpolation-filters="sRGB">
<feFlood flood-opacity="0" result="BackgroundImageFix"/>
<feColorMatrix in="SourceAlpha" type="matrix" values="0 0 0 0 0 0 0 0 0 0 0 0 0 0 0 0 0 0 127 0" result="hardAlpha"/>
<feOffset dx="20" dy="20"/>
<feGaussianBlur stdDeviation="2"/>
<feComposite in2="hardAlpha" operator="out"/>
<feColorMatrix type="matrix" values="0 0 0 0 0 0 0 0 0 0 0 0 0 0 0 0 0 0 1 0"/>
<feBlend mode="normal" in2="BackgroundImageFix" result="effect1_dropShadow_7_185"/>
<feBlend mode="normal" in="SourceGraphic" in2="effect1_dropShadow_7_185" result="shape"/>
</filter>
</defs>
</svg>
